<?xml version="1.0" standalone="no"?>
<!DOCTYPE svg PUBLIC "-//W3C//DTD SVG 20010904//EN"
 "http://www.w3.org/TR/2001/REC-SVG-20010904/DTD/svg10.dtd">
<svg version="1.0" xmlns="http://www.w3.org/2000/svg"
 width="70.000000pt" height="84.000000pt" viewBox="0 0 70.000000 84.000000"
 preserveAspectRatio="xMidYMid meet">

<g transform="translate(0.000000,84.000000) scale(0.100000,-0.100000)"
fill="#000000" stroke="none">
<path d="M155 831 c-37 -7 -75 -32 -75 -48 0 -7 -12 -25 -26 -40 -40 -43 -52
-73 -53 -136 0 -61 16 -97 64 -139 22 -19 74 -22 118 -6 21 8 31 7 45 -5 9 -9
21 -17 27 -19 5 -2 8 -13 7 -24 -2 -12 6 -39 17 -61 12 -21 21 -50 20 -63 0
-14 -1 -45 -1 -70 -1 -41 8 -82 44 -182 12 -36 15 -38 59 -38 39 0 50 5 76 33
17 19 34 44 38 55 3 12 11 22 16 22 5 0 9 13 9 30 0 21 9 38 30 57 31 27 37
59 21 113 -10 31 6 65 48 105 38 35 61 79 61 113 0 22 -3 24 -32 20 -50 -8
-87 40 -154 200 -12 26 -20 32 -44 32 -16 0 -40 5 -54 11 -20 9 -29 9 -40 0
-22 -19 -86 6 -81 31 3 16 -3 18 -53 17 -31 -1 -70 -4 -87 -8z"/>
<path d="M646 244 c-50 -44 -59 -149 -13 -142 36 5 84 169 49 168 -4 0 -20
-12 -36 -26z"/>
</g>
</svg>
