<?xml version="1.0" standalone="no"?>
<!DOCTYPE svg PUBLIC "-//W3C//DTD SVG 20010904//EN"
 "http://www.w3.org/TR/2001/REC-SVG-20010904/DTD/svg10.dtd">
<svg version="1.0" xmlns="http://www.w3.org/2000/svg"
 width="301.000000pt" height="301.000000pt" viewBox="0 0 301.000000 301.000000"
 preserveAspectRatio="xMidYMid meet">
<metadata>
Created by potrace 1.16, written by Peter Selinger 2001-2019
</metadata>
<g transform="translate(0.000000,301.000000) scale(0.100000,-0.100000)"
fill="#000000" stroke="none">
<path d="M2220 2595 c19 -23 9 -26 -45 -10 -26 8 -75 15 -108 15 -58 0 -59 -1
-44 -18 25 -28 21 -30 -35 -20 -70 13 -211 4 -273 -18 l-49 -17 52 -17 c68
-23 72 -27 26 -35 -93 -15 -125 -36 -253 -159 l-126 -121 43 -3 c23 -2 42 -7
42 -12 0 -21 -109 -117 -160 -140 l-53 -25 39 -7 c21 -4 59 -7 82 -7 85 -2 12
-62 -95 -80 -38 -6 -81 -14 -98 -17 l-29 -6 43 -23 c49 -24 48 -25 -29 -50
-30 -10 -59 -21 -63 -25 -13 -11 68 -42 129 -49 l58 -6 -68 -62 c-52 -47 -99
-77 -193 -123 -113 -55 -133 -69 -212 -148 -87 -88 -221 -187 -320 -237 -156
-78 -303 -54 -303 50 0 45 27 74 92 99 31 11 54 29 73 56 31 44 59 55 113 47
l36 -6 -44 34 c-55 44 -98 59 -159 53 -68 -7 -114 -45 -152 -127 -59 -124 -38
-268 46 -320 92 -57 214 -45 380 37 53 27 97 46 97 43 -1 -18 -43 -193 -56
-233 -10 -30 -29 -60 -53 -80 -33 -29 -39 -40 -44 -88 -4 -30 -25 -108 -48
-172 -23 -65 -39 -125 -35 -133 3 -9 26 -25 50 -36 50 -22 81 -19 132 12 l32
19 4 118 c6 165 21 195 177 341 66 61 133 131 149 156 25 38 32 43 42 30 22
-26 1 -73 -66 -142 -72 -76 -75 -87 -44 -179 12 -32 27 -88 35 -124 8 -36 17
-75 20 -87 5 -19 8 -21 34 -12 16 6 47 26 69 44 45 39 45 49 3 152 -23 58 -28
97 -17 130 8 24 15 27 96 42 30 5 67 14 81 20 36 13 97 68 114 101 l14 27 78
-15 78 -14 132 43 c73 24 135 40 138 37 15 -15 -30 -71 -91 -114 l-66 -47 7
-56 c4 -31 8 -76 9 -100 4 -64 38 -91 113 -91 104 0 174 52 233 175 28 58 62
170 75 248 7 43 35 53 35 12 0 -25 1 -25 25 -9 27 18 33 7 14 -28 -6 -11 -8
-22 -6 -24 12 -12 82 29 132 77 37 35 55 46 55 35 0 -26 13 -19 62 31 48 51
81 107 93 160 10 48 25 51 59 10 36 -43 42 -44 72 -16 12 12 27 18 32 15 5 -3
24 -42 42 -86 48 -120 96 -146 172 -95 38 26 78 95 78 136 -1 97 -173 267
-297 293 -29 7 -31 10 -23 31 5 13 11 45 14 72 3 26 8 73 12 103 l7 54 -29
-23 -29 -23 -3 26 c-4 32 21 133 49 195 19 43 21 45 34 27 17 -23 33 -13 51
30 16 38 19 145 5 159 -6 6 -11 23 -13 38 -6 40 -22 47 -114 47 -77 0 -81 1
-111 33 -17 17 -42 52 -56 77 -50 87 -119 140 -183 140 -23 0 -25 -2 -14 -15z
m29 -61 c45 -19 50 -18 44 7 -5 18 -3 20 13 11 25 -13 68 -61 84 -91 11 -22
11 -23 -6 -16 -78 32 -119 46 -133 43 -11 -2 -6 -9 16 -23 l32 -20 -112 2
c-93 2 -106 0 -74 -8 48 -14 47 -25 -3 -32 -36 -5 -190 -70 -190 -80 0 -2 35
4 78 14 42 10 81 17 86 16 14 -5 -177 -136 -254 -175 -60 -31 -62 -33 -26 -27
60 10 135 41 194 79 37 25 49 30 42 16 -15 -28 -77 -74 -155 -113 -38 -20 -62
-36 -51 -37 35 0 141 32 216 66 l74 35 -28 -30 c-16 -16 -69 -51 -120 -77 -84
-43 -88 -46 -49 -41 23 3 67 16 97 30 31 14 56 22 56 17 0 -5 -4 -12 -10 -15
-5 -3 -10 -10 -10 -16 0 -5 41 11 91 37 50 25 94 43 97 40 10 -11 -42 -56 -92
-80 -28 -13 -98 -38 -156 -56 -110 -33 -203 -70 -197 -77 2 -2 64 10 138 26
134 29 237 62 274 87 35 24 37 15 7 -29 -38 -54 -105 -116 -165 -151 -26 -16
-47 -29 -47 -31 0 -8 70 17 124 45 32 17 60 29 62 27 7 -6 -39 -62 -79 -94
-44 -37 -35 -43 21 -14 45 23 82 62 111 116 l22 40 -6 -72 c-6 -91 -34 -166
-92 -250 -24 -36 -42 -67 -40 -70 9 -9 87 69 119 119 18 27 34 45 36 39 6 -19
-18 -115 -43 -169 l-24 -52 38 30 c21 17 51 48 67 70 34 46 47 51 39 15 -3
-14 -7 -37 -11 -51 -5 -25 -3 -26 25 -21 17 4 31 2 31 -3 0 -5 -27 -37 -60
-71 -43 -43 -54 -59 -38 -55 13 4 31 10 41 13 14 4 17 -1 17 -33 l1 -39 26 30
26 30 -5 -49 c-6 -47 -32 -96 -56 -104 -7 -2 -12 3 -12 12 0 8 -5 27 -11 43
-10 28 -11 28 -43 -42 -18 -38 -43 -79 -56 -90 -18 -15 -22 -16 -18 -4 4 9 9
42 13 74 l8 58 -39 -31 c-22 -17 -57 -35 -79 -41 -79 -21 -86 -9 -20 38 50 36
82 77 95 122 9 29 8 30 -9 17 -10 -7 -41 -29 -68 -48 -28 -19 -50 -39 -49 -45
1 -11 -58 -34 -91 -34 -35 -1 -32 21 7 69 39 47 68 95 53 89 -60 -26 -105 -41
-109 -36 -4 3 3 19 15 35 11 16 25 41 30 55 6 15 27 37 49 50 40 26 102 91
102 108 0 5 -24 -8 -53 -30 -66 -50 -115 -71 -166 -71 -54 0 -59 14 -11 29 22
6 52 23 67 37 l28 26 -25 -7 c-110 -29 -146 -35 -225 -35 l-90 0 54 35 c32 21
65 35 84 35 46 0 102 17 129 40 l23 19 -35 -9 c-45 -13 -136 -13 -179 0 -25 7
-50 6 -92 -5 -31 -8 -67 -15 -80 -15 l-24 0 25 20 c14 11 50 29 80 40 l55 20
-50 -4 c-30 -3 -84 -21 -135 -44 -139 -65 -195 -67 -78 -3 34 19 103 73 152
121 50 48 102 93 114 99 13 7 22 15 19 17 -9 9 -60 -17 -121 -65 -93 -71 -165
-84 -274 -50 -42 14 -34 25 25 34 77 11 144 47 218 119 52 50 62 63 39 52 -17
-8 -54 -33 -83 -56 -29 -23 -55 -40 -57 -37 -3 3 6 27 20 54 30 61 112 137
192 180 46 25 54 32 34 33 -57 0 -175 -77 -270 -174 -24 -25 -52 -46 -62 -46
-10 0 -18 2 -18 4 0 5 130 145 226 243 61 61 79 74 115 79 39 7 41 8 19 16
-38 14 -72 1 -146 -58 -38 -31 -82 -62 -97 -70 -27 -14 -28 -14 -19 3 27 48
143 155 198 180 54 26 69 28 176 28 64 0 115 2 113 5 -2 3 -35 21 -75 40 -55
27 -67 36 -53 41 35 14 178 8 248 -11 39 -10 72 -16 74 -14 2 2 -4 15 -13 28
-9 14 -16 27 -16 29 0 7 104 -14 139 -29z m165 -144 c17 -6 24 -15 20 -24 -8
-20 18 -25 131 -29 l90 -2 -36 -16 c-20 -10 -40 -22 -43 -28 -4 -6 -20 -11
-37 -11 -38 0 -37 -14 3 -31 23 -9 33 -10 35 -2 7 20 63 -6 63 -29 0 -24 -94
-69 -162 -76 -42 -4 -48 -2 -48 15 0 10 7 29 16 41 19 28 5 29 -24 2 -12 -12
-22 -33 -22 -48 0 -15 -9 -45 -20 -67 -40 -78 -22 -221 39 -317 l31 -48 65 0
65 0 -6 -32 c-12 -64 -54 -105 -54 -53 l0 26 -37 -30 c-21 -16 -47 -31 -58
-33 -18 -3 -21 5 -27 73 -4 43 -14 94 -24 115 l-17 39 -16 -60 -16 -60 -3 115
c-2 74 -7 117 -14 122 -9 5 -10 22 -1 70 6 35 14 71 18 81 6 14 4 16 -11 10
-13 -5 -16 -3 -11 9 16 44 30 99 25 104 -4 3 -36 -4 -73 -15 -91 -28 -97 -28
-79 7 21 41 18 55 -11 48 -14 -3 -37 -9 -52 -13 l-27 -6 18 29 c47 73 95 104
162 104 28 0 35 3 30 15 -4 12 4 15 44 15 27 0 60 -4 74 -10z m-1102 -690
l-22 -19 55 -6 c30 -4 55 -10 55 -13 0 -2 -30 -58 -66 -124 -36 -66 -64 -122
-61 -125 3 -3 34 4 69 16 l63 22 23 -28 c12 -15 52 -71 88 -124 74 -108 74
-115 7 -166 -55 -42 -137 -43 -283 -5 -63 17 -142 34 -176 38 l-60 6 -61 -83
c-34 -46 -109 -129 -167 -185 -149 -142 -157 -161 -175 -436 -2 -21 -20 -5
-23 20 -3 24 -5 23 -18 -18 -16 -49 -50 -69 -50 -29 0 21 -1 21 -19 5 -15 -14
-20 -14 -30 -3 -9 11 -2 39 33 128 24 63 48 136 52 163 5 38 14 56 39 78 41
35 57 74 95 233 67 282 149 391 373 498 51 24 117 64 148 89 53 44 118 88 129
88 3 -1 -5 -9 -18 -20z m384 -25 c-16 -13 -61 -34 -100 -46 l-71 -23 41 -12
c23 -7 77 -15 120 -19 80 -8 160 -37 149 -55 -8 -12 -87 -12 -140 0 l-40 9 30
-25 c17 -13 49 -32 73 -41 39 -15 55 -32 148 -166 132 -190 133 -199 37 -251
l-68 -37 53 3 c61 3 62 1 32 -87 -29 -85 -66 -142 -111 -172 -22 -14 -42 -24
-44 -21 -3 2 9 22 25 44 16 22 34 53 40 69 9 23 -4 14 -65 -43 -74 -71 -100
-83 -123 -60 -20 20 -14 35 29 66 41 30 93 92 84 100 -2 2 -18 -7 -36 -22 -39
-33 -85 -57 -93 -49 -3 4 -6 25 -6 48 0 38 3 43 53 75 28 19 63 52 76 72 19
30 27 35 38 26 7 -6 16 -8 19 -5 23 23 -73 130 -262 293 -136 116 -174 158
-174 191 0 10 15 43 34 73 l34 55 84 16 c46 9 101 17 123 17 l40 1 -29 -24z
m1001 -107 c55 -27 154 -123 177 -171 9 -19 16 -50 16 -69 0 -33 -32 -98 -48
-98 -5 0 -7 33 -4 74 5 77 -11 115 -21 47 -7 -55 -43 -131 -62 -131 -21 0 -57
82 -80 180 -25 110 -23 108 -46 69 -12 -19 -30 -44 -42 -57 l-21 -22 -32 31
c-28 27 -36 30 -49 19 -13 -11 -15 -3 -15 69 0 47 4 81 10 81 6 0 10 -9 10
-20 0 -20 2 -20 48 5 55 29 89 28 159 -7z m-2494 -447 c54 -49 167 -36 309 35
37 19 70 34 74 34 12 0 -81 -72 -118 -91 -21 -11 -66 -26 -99 -35 -124 -32
-229 27 -229 128 l0 33 19 -40 c10 -22 30 -51 44 -64z m792 -288 c4 -16 19
-68 35 -118 30 -96 29 -130 -2 -74 l-18 34 2 -44 c5 -69 -18 -62 -41 13 -31
102 -37 161 -17 191 21 32 34 32 41 -2z"/>
</g>
</svg>
