<?xml version="1.0" standalone="no"?>
<!DOCTYPE svg PUBLIC "-//W3C//DTD SVG 20010904//EN"
 "http://www.w3.org/TR/2001/REC-SVG-20010904/DTD/svg10.dtd">
<svg version="1.0" xmlns="http://www.w3.org/2000/svg"
 width="794.000000pt" height="635.000000pt" viewBox="0 0 794.000000 635.000000"
 preserveAspectRatio="xMidYMid meet">
<metadata>
Created by potrace 1.16, written by Peter Selinger 2001-2019
</metadata>
<g transform="translate(0.000000,635.000000) scale(0.100000,-0.100000)"
fill="#000000" stroke="none">
<path d="M3400 5939 c-143 -28 -225 -105 -240 -227 l-7 -57 -13 30 c-8 17 -14
60 -14 97 -1 38 -4 68 -8 68 -4 0 -17 -26 -29 -57 -34 -85 -33 -206 2 -290
l26 -62 -28 -49 c-51 -90 -119 -132 -214 -132 -56 0 -132 -39 -187 -96 -46
-49 -122 -159 -133 -195 -9 -27 -24 -24 -75 17 -64 51 -117 133 -131 204 -6
33 -13 60 -16 60 -18 0 -67 -37 -96 -72 -44 -55 -147 -249 -148 -280 -1 -12 2
-51 6 -85 13 -107 -34 -188 -123 -213 -94 -26 -301 0 -428 53 l-59 25 -12 -51
c-6 -29 -16 -77 -23 -108 -8 -43 -16 -59 -34 -67 -39 -17 -92 -69 -126 -123
-18 -27 -31 -52 -28 -54 2 -2 34 1 71 7 37 6 70 8 73 5 4 -3 -9 -18 -27 -33
-19 -15 -75 -69 -126 -120 -142 -143 -249 -297 -307 -440 -45 -112 -44 -113 9
-66 93 81 255 172 255 141 0 -18 -65 -113 -107 -154 -22 -22 -69 -65 -105 -95
-103 -86 -179 -212 -226 -375 -42 -143 -53 -314 -30 -444 l11 -66 17 55 c24
79 92 202 104 189 2 -2 0 -31 -6 -64 -14 -86 -4 -336 17 -415 21 -80 86 -219
115 -245 12 -11 62 -28 118 -41 182 -41 410 -140 536 -233 28 -21 81 -70 117
-109 107 -115 156 -229 161 -372 l3 -75 95 -16 c110 -18 205 -57 247 -101 27
-29 28 -33 32 -155 4 -173 -22 -287 -85 -370 -13 -17 -24 -34 -24 -37 0 -3 29
15 63 39 101 70 235 192 285 259 26 33 86 99 134 145 99 94 185 215 222 311
14 36 37 119 51 185 15 66 34 135 42 153 21 44 64 78 125 99 l50 18 -6 84
c-15 204 -92 382 -214 498 l-44 42 39 16 c32 14 44 14 75 4 30 -9 47 -10 78 0
33 10 45 9 71 -4 28 -15 35 -15 106 6 54 16 80 20 92 12 16 -10 139 -341 140
-379 1 -12 -44 -108 -98 -215 -249 -485 -374 -921 -387 -1339 l-4 -155 19 51
c25 69 100 216 146 289 140 220 306 380 650 624 555 394 854 633 1123 896 210
204 342 364 441 531 l42 70 665 66 665 67 62 53 c177 152 297 228 425 268 l53
16 -123 18 c-163 25 -285 58 -391 108 l-87 41 -481 -97 c-264 -54 -483 -96
-485 -93 -8 7 22 72 63 140 72 119 181 223 297 283 39 20 72 38 74 39 2 2 -18
35 -44 75 -133 206 -221 482 -227 708 -1 51 -4 92 -5 92 -2 0 -16 -8 -30 -19
-56 -39 -175 -93 -291 -131 -199 -65 -424 -101 -736 -116 l-140 -6 0 -187 c-1
-160 -4 -199 -24 -281 -42 -170 -114 -345 -139 -335 -7 3 -20 5 -28 5 -10 0
-14 13 -14 45 0 53 -24 75 -95 83 l-45 5 0 53 0 54 -62 0 c-35 0 -80 -5 -102
-11 -37 -10 -40 -9 -77 27 -22 21 -39 41 -39 44 0 3 26 6 58 8 71 4 184 29
208 46 15 11 2 14 -87 18 -85 4 -115 9 -162 31 -31 14 -57 30 -57 36 0 5 35
29 78 52 l77 43 -60 7 c-33 4 -96 10 -140 14 l-80 7 90 32 90 31 -80 6 c-99 7
-156 30 -199 81 -33 38 -34 39 -77 29 -24 -6 -47 -11 -51 -11 -12 0 -10 102 3
162 13 63 66 180 108 244 17 25 31 47 31 48 0 2 -33 -7 -73 -19 -40 -13 -108
-28 -152 -34 -95 -14 -90 -18 -135 108 -36 97 -34 134 6 172 l25 24 -64 20
c-54 17 -72 29 -115 78 -38 42 -52 65 -52 87 0 28 2 30 40 30 25 0 63 12 101
30 80 41 125 42 157 5 20 -24 23 -36 19 -72 -4 -41 -3 -43 22 -43 34 0 67 23
92 64 l19 31 0 -46 c0 -50 -25 -93 -60 -104 -36 -11 -21 -25 28 -25 130 0 212
70 212 181 0 14 -11 47 -24 72 -13 26 -21 47 -18 47 2 0 33 -20 67 -45 109
-78 159 -186 137 -297 -5 -29 -9 -54 -8 -55 2 -2 16 16 33 40 34 47 53 97 53
137 0 15 3 30 7 33 9 10 51 -49 84 -118 l29 -60 0 61 c0 33 -7 83 -15 110 -8
27 -15 50 -15 51 0 1 19 -5 43 -13 24 -9 76 -16 122 -17 138 -1 226 56 294
192 43 83 83 127 125 134 50 8 104 -8 137 -39 24 -23 29 -25 29 -10 0 29 -62
83 -111 97 -85 24 -136 17 -220 -29 -63 -35 -89 -44 -145 -48 l-69 -5 50 46
50 46 -45 -6 c-39 -5 -42 -4 -25 6 44 28 85 90 85 132 l0 27 -42 -30 c-54 -39
-138 -64 -192 -57 -23 4 -111 36 -196 72 -204 88 -250 100 -385 99 -135 -1
-202 -23 -270 -89 l-45 -44 0 45 c0 25 5 55 11 66 11 20 11 20 -21 2 -18 -11
-45 -31 -61 -46 -35 -35 -40 -35 -30 0 21 72 69 129 131 155 40 18 20 20 -50
6z m-113 -136 c-15 -35 -21 -69 -21 -124 -1 -68 2 -80 29 -119 l30 -43 6 64
c6 64 25 119 41 119 4 0 8 -11 8 -24 0 -13 10 -36 21 -51 l22 -27 31 58 c55
103 146 140 322 132 111 -5 170 -22 322 -94 151 -72 260 -86 357 -49 37 15 2
-12 -50 -39 -68 -33 -167 -50 -225 -37 -57 13 -63 6 -14 -16 29 -14 65 -18
146 -18 95 0 106 -2 92 -15 -8 -8 -29 -20 -47 -26 l-32 -11 49 -8 c75 -12 226
-1 264 19 19 10 36 15 39 12 12 -12 -32 -88 -70 -122 -56 -51 -120 -76 -203
-82 -122 -8 -250 35 -343 114 -36 32 -42 34 -31 13 7 -13 37 -49 65 -79 50
-52 112 -146 103 -155 -2 -2 -19 17 -38 42 -19 25 -46 53 -59 62 -23 15 -24
15 -13 -6 13 -24 16 -113 5 -113 -5 0 -23 28 -40 63 -65 125 -150 197 -267
226 -65 16 -235 16 -321 0 l-70 -14 120 -6 c232 -11 315 -61 315 -190 0 -45
-4 -55 -34 -85 -45 -45 -58 -43 -33 7 17 35 18 46 8 79 -13 43 -55 84 -116
111 -55 26 -68 23 -41 -6 30 -32 39 -66 27 -97 l-10 -23 0 24 c-1 34 -59 87
-105 95 -32 6 -44 3 -75 -18 -47 -33 -107 -35 -145 -5 -23 18 -26 18 -26 4 0
-11 -5 -15 -15 -11 -10 3 -15 1 -13 -7 2 -7 -6 -24 -18 -39 -20 -26 -22 -26
-60 -13 -21 8 -47 14 -56 15 -10 0 -18 4 -18 8 0 22 84 72 121 72 20 0 17 4
-19 35 -56 48 -92 126 -103 222 -9 79 4 128 14 53 5 -41 52 -130 72 -137 6 -2
10 29 10 80 0 89 20 143 73 200 38 40 44 33 19 -20z m-152 -634 c51 -19 165
-109 165 -130 0 -5 -14 -9 -32 -9 -35 0 -187 -44 -231 -67 -26 -13 -31 -13
-46 1 -9 8 -34 22 -55 31 -88 37 -166 -25 -166 -131 0 -29 -12 -55 -51 -111
-33 -48 -53 -89 -56 -114 l-6 -40 -28 33 c-34 38 -130 190 -125 195 2 2 31 -4
64 -14 40 -12 64 -25 70 -38 7 -15 11 -2 16 50 19 192 66 270 192 326 100 45
201 51 289 18z m-786 -311 c69 -269 202 -497 419 -717 l112 -114 0 -63 c0
-107 1 -108 -218 155 -210 251 -367 472 -455 638 -50 95 -50 97 -38 142 17 63
75 182 109 222 l27 33 8 -91 c4 -51 20 -143 36 -205z m1071 149 c0 -2 -8 -19
-17 -38 -24 -48 -28 -134 -13 -275 11 -107 10 -127 -4 -177 -9 -31 -21 -59
-26 -62 -25 -15 -244 131 -325 216 -32 33 -59 58 -61 56 -2 -2 -6 -23 -9 -48
-6 -42 -4 -47 47 -105 72 -84 148 -146 228 -188 59 -31 71 -34 101 -26 51 15
57 12 24 -13 -91 -66 -208 -202 -235 -271 -6 -16 -13 -27 -15 -24 -12 12 64
180 112 248 17 24 10 19 -21 -15 -58 -63 -123 -191 -139 -273 -6 -34 -14 -62
-18 -62 -12 0 -105 105 -151 170 -94 133 -173 311 -198 448 l-11 60 71 101
c70 98 71 102 60 136 -8 25 -8 40 0 55 21 39 118 21 177 -33 l23 -20 97 45
c105 49 173 73 244 87 57 11 59 12 59 8z m275 -339 c-34 -62 -57 -161 -58
-255 l-2 -83 -55 -11 c-135 -28 -275 -100 -372 -195 -27 -26 -50 -45 -53 -42
-10 10 127 168 203 233 66 57 78 72 67 81 -24 18 -18 29 28 52 l42 21 10 98
10 98 60 6 c33 3 76 13 95 22 50 22 51 21 25 -25z m-1486 -90 c72 -60 241
-259 241 -284 0 -3 -17 9 -37 28 -48 42 -179 142 -261 197 l-64 43 28 29 c15
16 31 29 35 29 4 0 30 -19 58 -42z m-621 -10 c54 -18 90 -22 187 -23 66 0 143
4 170 8 48 8 53 6 138 -45 147 -87 333 -234 484 -382 143 -138 182 -189 81
-104 -262 222 -591 407 -830 469 -92 23 -244 29 -292 10 -16 -6 -30 -10 -32
-9 -3 4 18 98 23 98 2 0 34 -10 71 -22z m4114 -238 c-44 -165 -37 -157 -177
-203 -134 -44 -357 -77 -527 -77 l-68 0 0 -36 c0 -20 -9 -81 -20 -136 -62
-300 -185 -548 -353 -710 -54 -52 -64 -57 -125 -68 -37 -6 -76 -14 -86 -17
-13 -4 -1 16 35 58 275 318 422 659 436 1014 l6 140 151 1 c223 2 402 38 609
120 60 24 118 51 130 59 12 8 23 12 25 7 1 -5 -15 -73 -36 -152z m112 56 c13
-117 84 -306 171 -457 l27 -47 -62 -73 c-69 -83 -220 -291 -301 -416 -46 -72
-57 -83 -82 -83 l-29 0 23 38 c13 20 81 128 151 240 70 112 128 206 128 210 0
4 -27 84 -61 179 l-61 171 38 146 c22 80 42 146 45 146 3 0 9 -24 13 -54z
m-3875 14 c212 -54 404 -166 687 -400 120 -99 153 -131 97 -95 -45 30 -303
184 -334 200 -56 30 -28 7 81 -64 61 -40 110 -74 110 -77 0 -6 4 -9 -95 51
-155 94 -426 212 -610 266 -125 36 -298 69 -397 76 -54 3 -95 10 -92 14 5 8
90 35 159 49 71 16 301 4 394 -20z m-232 -140 c374 -67 709 -221 961 -441 74
-64 82 -74 68 -87 -13 -13 -20 -11 -63 16 -140 89 -351 173 -539 213 -140 30
-391 37 -541 15 -138 -20 -299 -66 -418 -118 -49 -21 -97 -42 -105 -45 -33
-11 312 318 409 390 57 42 107 77 111 77 3 0 56 -9 117 -20z m1993 4 c-29 -33
-171 -145 -275 -214 -60 -41 -132 -94 -159 -119 -52 -49 -50 -37 8 44 85 119
217 221 362 280 69 29 81 30 64 9z m185 -37 c57 -14 58 -15 30 -22 -16 -5 -97
-27 -180 -51 -82 -23 -151 -41 -153 -39 -2 1 39 32 90 68 102 72 98 71 213 44z
m-445 -34 c-141 -116 -255 -247 -308 -353 l-27 -55 -7 60 c-5 47 -2 69 12 102
37 84 168 196 302 257 74 34 80 31 28 -11z m514 -73 c50 0 43 -7 -27 -25 -86
-22 -223 -80 -312 -132 -104 -60 -181 -119 -280 -214 -44 -42 -101 -92 -127
-112 -45 -33 -156 -83 -165 -73 -2 2 23 19 56 36 60 32 181 133 171 143 -3 3
-27 -5 -55 -18 -27 -13 -51 -22 -53 -20 -9 9 140 145 208 190 115 76 296 161
490 229 8 3 24 3 35 1 11 -3 38 -5 59 -5z m1676 -44 c0 -2 -20 -71 -44 -153
-112 -374 -223 -647 -268 -657 -12 -3 -171 -31 -353 -61 -181 -31 -338 -58
-347 -61 -30 -9 -19 10 25 41 84 61 201 247 261 413 34 94 62 207 77 310 l12
82 41 0 c167 2 433 36 529 70 58 20 67 22 67 16z m114 -146 c21 -55 36 -106
33 -113 -11 -29 -279 -503 -290 -513 -18 -17 -90 -26 -84 -11 8 17 134 337
220 555 39 100 74 182 77 182 3 0 22 -45 44 -100z m-1744 64 c29 -14 70 -29
91 -31 76 -11 49 -23 -49 -23 -65 0 -125 -7 -174 -19 -121 -31 -398 -177 -578
-305 -70 -50 -74 -51 -55 -23 21 33 130 122 220 180 80 51 255 141 395 203 52
23 96 43 97 43 1 1 25 -11 53 -25z m46 -150 l73 -45 -63 -33 c-102 -53 -173
-105 -225 -162 l-48 -55 -52 21 c-29 11 -70 29 -92 40 -43 22 -119 87 -119
101 0 22 373 174 439 178 7 1 46 -20 87 -45z m-1796 -2 c63 -16 132 -37 154
-46 l38 -16 -42 -50 c-23 -28 -68 -70 -99 -94 -155 -118 -283 -159 -598 -191
-84 -9 -187 -25 -230 -35 -169 -43 -349 -154 -540 -334 -29 -27 -53 -43 -53
-37 0 24 53 167 88 236 142 284 408 494 727 574 116 29 126 30 290 26 128 -2
167 -7 265 -33z m2062 -62 c4 -73 6 -70 -62 -99 -75 -31 -162 -86 -205 -129
l-30 -29 -52 26 c-29 14 -53 28 -53 32 0 12 88 84 147 119 47 29 224 107 246
109 4 1 8 -12 9 -29z m158 -128 c0 -29 -21 -47 -89 -76 -36 -15 -94 -47 -129
-72 l-64 -45 -40 27 -40 28 24 18 c44 36 181 100 252 118 89 24 86 24 86 2z
m-1090 -138 c83 -31 212 -70 291 -88 23 -5 26 -11 25 -43 l-1 -37 80 -23 c66
-20 86 -22 112 -13 45 16 117 -5 109 -32 -3 -10 -9 -27 -12 -38 -4 -13 -2 -20
7 -20 25 -1 271 -48 276 -54 4 -3 -29 -59 -62 -104 -2 -2 -54 -12 -116 -23
-63 -11 -203 -35 -311 -54 -109 -19 -206 -35 -216 -35 -22 0 -36 27 -51 101
-11 52 -3 109 24 171 5 14 -17 42 -96 123 -57 58 -108 105 -114 105 -5 0 -33
-23 -62 -50 l-51 -50 9 -102 c5 -57 12 -120 15 -140 3 -21 4 -38 1 -38 -2 0
-29 11 -60 25 -73 34 -175 55 -266 55 -68 0 -77 -2 -122 -35 -27 -19 -60 -35
-74 -35 -32 0 -31 5 3 35 l27 24 -82 1 c-46 0 -83 2 -83 5 0 2 19 22 43 44 32
31 66 48 147 76 190 66 382 167 480 253 19 17 35 31 35 32 0 0 43 -16 95 -36z
m1109 17 c-8 -11 -39 -56 -68 -100 -30 -45 -56 -81 -58 -81 -7 0 -103 65 -103
70 0 7 32 27 135 82 100 53 114 57 94 29z m2285 -91 c42 -17 121 -43 176 -57
93 -24 121 -43 65 -43 -14 0 -107 -13 -207 -30 -101 -16 -241 -38 -313 -49
-71 -11 -229 -36 -350 -55 -121 -19 -380 -60 -575 -90 -195 -31 -382 -60 -415
-66 -33 -5 -202 -32 -375 -59 -173 -28 -492 -78 -708 -112 l-392 -62 -55 38
c-30 20 -55 40 -55 44 0 3 75 19 168 35 92 15 185 32 207 37 22 5 256 47 520
94 549 99 708 127 890 160 72 13 321 58 555 100 385 69 782 142 787 144 1 1
36 -13 77 -29z m-3315 -143 c31 -33 33 -38 22 -67 -29 -84 -21 -237 15 -313 9
-18 42 -52 75 -76 44 -32 58 -48 54 -60 -4 -9 -16 -40 -27 -69 l-21 -52 53
-148 c68 -189 99 -249 150 -296 46 -42 49 -31 -29 -124 -25 -28 -48 -49 -52
-45 -3 5 -29 71 -57 148 -28 77 -72 199 -99 270 -45 121 -47 132 -36 165 26
72 -2 215 -51 266 -26 27 -35 47 -40 87 -4 28 -21 124 -37 212 -38 209 -38
204 9 167 20 -17 52 -46 71 -65z m-1879 58 c0 -22 -49 -95 -87 -129 -101 -92
-159 -156 -230 -256 -71 -98 -143 -228 -143 -257 0 -44 -61 26 -89 102 -15 40
-21 79 -21 139 l0 84 59 55 c111 102 253 184 421 241 79 27 90 29 90 21z
m5450 -49 c0 -2 -29 -21 -66 -42 -36 -21 -91 -64 -122 -95 l-58 -57 -494 -66
c-272 -37 -560 -76 -640 -86 -266 -36 -963 -129 -1155 -155 -104 -14 -325 -44
-490 -65 -165 -22 -315 -43 -332 -46 -18 -3 -33 -4 -33 -1 0 2 9 25 20 49 19
44 22 46 72 52 29 4 240 36 468 72 349 55 898 140 1275 199 50 7 295 46 545
85 250 39 496 77 545 85 364 56 431 66 440 70 14 5 25 6 25 1z m-5060 -144
c147 -36 287 -52 478 -52 100 -1 182 -4 181 -8 0 -4 -34 -33 -75 -65 -41 -32
-94 -84 -117 -117 -39 -54 -50 -62 -137 -101 -205 -91 -470 -166 -672 -190
-100 -11 -271 -10 -284 3 -8 9 71 143 149 253 73 103 180 227 244 283 l57 49
45 -17 c25 -10 84 -27 131 -38z m-412 -69 c-113 -119 -207 -282 -245 -427 -10
-37 -24 -68 -33 -72 -17 -6 -181 -7 -187 0 -7 7 76 166 125 241 92 138 231
263 341 306 26 10 50 18 55 19 5 0 -20 -30 -56 -67z m1567 -37 l60 -29 -65
-12 c-138 -27 -249 -80 -340 -162 l-53 -47 -35 21 c-20 11 -38 25 -40 31 -2 6
43 61 100 122 l103 112 105 -4 c89 -4 114 -9 165 -32z m205 -133 l65 -29 -96
-7 c-111 -7 -217 -27 -342 -64 -82 -24 -89 -25 -104 -10 -9 9 -15 18 -12 20
26 21 117 69 169 89 36 14 72 28 80 32 8 3 51 4 95 2 62 -3 95 -10 145 -33z
m1969 -115 c-261 -412 -665 -825 -1109 -1135 -164 -115 -495 -312 -505 -301
-3 2 26 22 63 43 368 215 793 560 1076 874 169 187 304 361 391 507 31 52 40
60 73 64 20 3 39 5 41 3 2 -1 -12 -26 -30 -55z m-1860 36 c23 -17 26 -52 7
-96 -5 -11 -3 -16 10 -15 10 1 20 -9 26 -25 13 -39 -13 -89 -62 -117 -46 -25
-45 -26 -25 22 16 39 20 77 8 77 -5 0 -16 -21 -27 -46 -21 -52 -69 -89 -130
-100 l-39 -7 26 35 c32 42 57 100 56 130 l0 23 -10 -24 c-26 -66 -82 -110
-156 -124 -40 -8 -40 -5 -8 37 14 18 28 47 31 65 l7 33 -49 -52 c-27 -29 -67
-61 -89 -71 -39 -18 -118 -25 -150 -13 -14 6 -14 8 3 20 11 8 36 36 55 62 l35
49 -30 17 c-16 10 -27 23 -25 29 11 33 284 92 492 106 11 0 31 -6 44 -15z
m1231 -417 c-223 -222 -520 -513 -660 -647 -140 -135 -342 -330 -447 -434
-106 -105 -195 -188 -197 -185 -17 17 88 289 194 502 136 271 169 327 193 327
17 0 40 26 93 104 59 86 68 105 56 113 -13 8 14 53 152 259 93 137 172 253
177 259 8 8 732 100 819 104 20 1 -60 -84 -380 -402z m-2270 331 l-1 -43 -67
-30 c-91 -40 -262 -145 -342 -209 l-65 -52 -62 8 c-131 17 -373 95 -373 121 0
4 26 7 58 7 172 0 505 87 732 190 58 27 108 49 113 49 4 1 7 -18 7 -41z m2726
-25 c-131 -260 -611 -732 -1093 -1074 -87 -62 -175 -125 -196 -142 -67 -52
-49 -23 21 34 159 130 460 407 622 573 372 382 665 676 672 676 5 0 -7 -30
-26 -67z m-2505 1 c47 -11 74 -22 84 -37 15 -22 14 -22 -75 -40 -49 -9 -120
-29 -157 -43 -38 -14 -77 -28 -88 -31 -11 -4 18 32 65 80 47 48 89 87 93 87 4
0 39 -7 78 -16z m1527 -22 c-7 -17 -313 -462 -318 -462 -3 0 -22 16 -42 35
l-37 35 140 192 c131 181 142 193 177 199 57 9 84 10 80 1z m-258 -27 c0 -2
-33 -48 -73 -102 -40 -54 -83 -113 -96 -130 -27 -40 -41 -42 -41 -5 0 15 -7
67 -16 116 -8 48 -13 90 -11 92 5 5 178 31 215 33 12 1 22 -1 22 -4z m-1546
-88 l-48 -44 146 -47 c81 -25 149 -46 153 -46 3 0 18 12 33 26 45 43 95 72
137 78 43 6 45 9 -29 -39 -17 -12 -51 -46 -75 -76 l-44 -55 -86 43 c-48 24
-130 55 -185 68 -55 14 -101 27 -103 29 -4 4 141 115 145 111 2 -2 -18 -23
-44 -48z m-899 -109 c73 -37 162 -68 254 -89 l54 -12 -38 -19 c-45 -23 -63
-21 -210 28 -107 35 -236 91 -268 116 -16 12 -9 14 60 12 68 -1 87 -5 148 -36z
m-389 -123 c-4 17 -9 39 -12 50 -4 11 35 -20 86 -70 93 -91 99 -92 64 -6 -21
50 -19 50 39 -6 49 -48 177 -136 185 -128 2 2 -5 17 -17 34 -22 30 -54 111
-45 111 3 0 24 -11 47 -24 66 -39 176 -71 387 -115 275 -57 413 -107 535 -191
104 -73 203 -199 231 -298 9 -29 18 -51 21 -48 11 11 -20 185 -46 263 -33 96
-101 209 -166 276 -25 26 -42 47 -36 47 22 0 126 -52 173 -87 58 -42 133 -139
143 -183 4 -16 11 -33 17 -36 20 -13 1 156 -25 229 -30 81 -12 72 32 -18 74
-150 80 -347 20 -655 -53 -269 -155 -484 -294 -620 l-56 -55 8 45 c4 25 8 108
7 185 -1 167 -23 253 -109 433 -49 101 -169 291 -195 307 -6 3 -10 11 -10 16
0 5 26 -5 58 -22 159 -88 258 -185 338 -331 30 -55 34 -58 29 -28 -17 90 -119
242 -216 321 -228 186 -601 339 -1036 426 l-141 27 -56 116 -56 115 51 -55
c48 -52 51 -53 45 -25z m2612 -370 c3 -2 -7 -22 -21 -43 -94 -143 -227 -467
-322 -788 -25 -84 -45 -128 -83 -185 -28 -41 -75 -121 -106 -179 -31 -58 -56
-100 -56 -94 0 19 79 284 126 424 84 246 259 672 346 844 19 38 20 38 66 32
25 -3 48 -8 50 -11z m-1906 -62 c153 -92 290 -227 378 -373 44 -72 104 -204
116 -254 l7 -29 -39 27 c-41 28 -150 66 -188 66 -20 0 -23 8 -34 80 -12 83
-59 211 -94 255 -11 14 -18 28 -15 31 6 6 148 -153 183 -206 42 -63 40 -47 -5
36 -80 147 -219 296 -350 374 -68 41 -90 59 -53 46 9 -4 52 -28 94 -53z"/>
<path d="M3914 5568 c3 -14 9 -34 13 -44 5 -14 3 -16 -13 -9 -105 46 -160 57
-259 53 -65 -3 -115 -11 -143 -23 -46 -19 -53 -32 -8 -15 64 24 152 30 233 16
100 -17 154 -45 221 -112 53 -55 97 -77 50 -26 -89 96 -70 147 24 67 90 -76
204 -116 328 -114 l75 2 -79 8 c-178 19 -300 77 -365 175 -29 44 -31 46 -31
20 l0 -27 -26 28 -25 28 5 -27z"/>
<path d="M2252 5043 c-30 -42 -48 -88 -56 -143 -6 -41 -2 -52 45 -135 143
-250 484 -722 524 -724 5 -1 -7 16 -26 37 -20 20 -61 69 -91 107 -220 280
-352 583 -371 855 l-2 35 -23 -32z"/>
<path d="M5638 4385 c-121 -85 -440 -155 -703 -155 l-72 0 -6 -102 c-20 -320
-127 -621 -308 -866 l-50 -67 45 47 c169 181 304 532 331 863 l7 80 167 0 c91
0 203 6 248 13 107 17 263 56 318 81 38 17 45 25 55 63 6 24 13 51 16 61 7 21
9 22 -48 -18z"/>
<path d="M1514 4173 c-42 -29 -79 -55 -83 -59 -3 -3 32 -4 79 -1 109 6 363 -9
463 -28 211 -40 369 -96 527 -187 l35 -20 -25 21 c-40 33 -173 109 -262 151
-168 78 -408 147 -585 168 l-72 8 -77 -53z"/>
<path d="M5380 3955 c-30 -7 -116 -14 -191 -14 l-136 -1 -18 -87 c-24 -117
-76 -275 -123 -377 -43 -91 -131 -233 -162 -261 -11 -10 -20 -21 -20 -25 0 -6
64 1 128 15 27 7 101 105 147 196 42 82 98 242 131 373 14 55 30 104 36 108 6
3 32 9 57 13 55 8 202 53 216 66 11 11 8 10 -65 -6z"/>
<path d="M3628 3739 c-21 -11 -38 -24 -38 -29 0 -16 75 -66 136 -90 l56 -23
31 31 c17 17 29 33 26 35 -15 13 -161 97 -167 97 -4 -1 -24 -10 -44 -21z"/>
<path d="M1710 3793 c-308 -51 -554 -240 -704 -542 -21 -40 -36 -75 -34 -76 2
-2 34 24 71 57 45 40 78 80 96 117 124 244 379 407 688 440 l78 8 -85 0 c-47
0 -96 -2 -110 -4z"/>
<path d="M2215 3654 c-41 -33 -144 -75 -216 -89 -41 -7 -150 -19 -244 -25 -93
-6 -197 -15 -231 -20 -121 -20 -236 -73 -295 -136 l-24 -26 25 6 c14 4 60 25
104 48 132 67 144 70 361 78 110 5 223 13 250 20 67 16 222 91 265 129 36 31
40 42 5 15z"/>
<path d="M6655 3418 c-22 -4 -287 -50 -590 -103 -302 -53 -597 -105 -655 -115
-143 -27 -1123 -196 -1185 -206 -27 -4 -45 -9 -38 -11 6 -2 249 34 540 81 535
87 1319 212 1538 246 66 11 206 33 310 50 105 16 196 30 204 30 23 0 8 9 -40
23 -28 8 -58 10 -84 5z"/>
<path d="M1144 3126 l-51 -34 7 -60 c8 -60 36 -158 48 -166 4 -2 33 32 64 77
l57 81 -24 28 c-14 16 -29 47 -35 68 -6 22 -12 40 -13 40 -1 0 -25 -15 -53
-34z"/>
<path d="M6645 3209 c-149 -23 -818 -126 -1205 -185 -335 -51 -694 -105 -1173
-178 -480 -73 -585 -93 -566 -109 2 -2 146 15 319 39 281 37 977 131 1260 169
58 8 303 41 545 74 242 33 551 74 686 92 l246 33 54 48 c64 56 74 55 -166 17z"/>
<path d="M1746 3108 c-14 -18 -22 -36 -18 -39 15 -14 222 -41 357 -46 77 -3
181 -2 230 3 l90 8 -115 7 c-150 10 -290 34 -411 70 -54 16 -100 29 -103 29
-2 0 -16 -15 -30 -32z"/>
<path d="M2310 2904 c-81 -26 -283 -63 -380 -70 -109 -7 -251 7 -334 35 l-56
18 -34 -37 c-29 -32 -106 -152 -106 -166 0 -2 51 -4 113 -4 194 0 380 37 666
132 143 47 191 72 191 98 0 12 -4 12 -60 -6z"/>
<path d="M4465 2739 c-33 -5 -74 -12 -92 -14 -28 -5 -45 -25 -141 -163 -292
-420 -551 -845 -613 -1011 -15 -39 -7 -26 71 102 203 338 440 647 742 970 66
70 114 126 106 126 -7 -1 -40 -5 -73 -10z"/>
<path d="M1950 2032 c162 -60 255 -113 353 -202 155 -141 223 -325 196 -525
-11 -85 -29 -124 -29 -65 -1 83 -91 261 -171 335 l-32 30 36 -50 c47 -68 90
-157 113 -235 21 -75 25 -259 6 -325 l-11 -40 44 50 c118 132 185 355 199 666
7 146 2 146 -14 -1 -6 -58 -20 -141 -32 -185 l-22 -80 -12 71 c-16 94 -30 136
-70 205 -61 103 -172 198 -320 272 -75 38 -246 100 -304 111 -19 3 12 -11 70
-32z"/>
</g>
</svg>
