<?xml version="1.0" standalone="no"?>
<!DOCTYPE svg PUBLIC "-//W3C//DTD SVG 20010904//EN"
 "http://www.w3.org/TR/2001/REC-SVG-20010904/DTD/svg10.dtd">
<svg version="1.0" xmlns="http://www.w3.org/2000/svg"
 width="301.000000pt" height="301.000000pt" viewBox="0 0 301.000000 301.000000"
 preserveAspectRatio="xMidYMid meet">
<metadata>
Created by potrace 1.16, written by Peter Selinger 2001-2019
</metadata>
<g transform="translate(0.000000,301.000000) scale(0.100000,-0.100000)"
fill="#000000" stroke="none">
<path d="M2164 2580 c20 -22 36 -44 36 -48 0 -20 -15 -20 -41 -1 -75 53 -200
66 -299 31 -30 -11 -107 -45 -170 -75 -204 -98 -316 -124 -480 -113 l-95 6 68
-41 c59 -35 77 -59 46 -59 -5 0 -43 -16 -85 -36 -57 -27 -97 -57 -165 -122
-82 -78 -96 -97 -141 -192 -28 -58 -61 -120 -74 -137 -35 -47 -104 -91 -192
-123 -71 -26 -75 -29 -49 -35 34 -9 193 -1 222 11 11 4 -5 -20 -38 -55 -61
-67 -85 -107 -123 -208 -57 -152 -99 -209 -179 -249 -30 -14 -55 -29 -55 -32
0 -14 173 9 245 32 44 14 83 26 88 26 4 0 -1 -17 -12 -39 -54 -106 -216 -192
-536 -287 l-89 -27 58 -29 c102 -52 216 -71 421 -72 254 0 460 37 613 111 43
20 81 39 86 41 5 3 -12 -23 -39 -57 -74 -95 -223 -232 -290 -268 l-59 -31 38
-8 c52 -9 205 1 302 21 190 39 406 129 521 216 29 22 53 37 53 34 0 -3 -15
-29 -34 -58 -40 -63 -124 -143 -188 -181 -54 -31 -58 -41 -25 -50 96 -26 324
19 562 110 10 4 15 0 15 -11 0 -10 -47 -64 -104 -120 l-105 -102 52 9 c118 21
336 115 407 174 40 34 60 79 60 138 l0 44 55 -19 c61 -21 155 -25 205 -7 l33
11 -39 20 c-42 21 -74 46 -74 57 0 4 17 10 39 13 42 5 111 35 111 47 0 4 -18
10 -39 14 -42 6 -101 49 -101 72 0 7 6 28 14 46 8 18 22 50 31 71 9 21 14 49
11 61 -4 17 3 31 29 56 19 19 43 57 54 84 19 53 35 136 26 136 -3 0 -26 -15
-52 -34 -65 -46 -114 -69 -123 -59 -13 13 -30 110 -30 166 0 66 23 155 59 232
32 68 127 205 141 205 6 0 10 -35 10 -80 l0 -81 24 18 c62 46 116 171 116 268
0 62 -27 141 -62 181 -41 47 -92 71 -178 86 -62 11 -79 19 -137 65 -37 29 -75
53 -86 53 -10 0 -32 -9 -48 -21 l-29 -20 0 51 c0 89 -55 163 -147 196 -70 25
-79 19 -39 -26z m-79 -69 c43 -20 113 -83 98 -88 -5 -2 -35 6 -66 16 -31 11
-57 16 -57 11 0 -5 4 -12 10 -15 5 -3 15 -15 20 -25 9 -17 8 -19 -7 -13 -10 4
-36 18 -58 31 -59 38 -117 39 -230 7 -52 -15 -101 -25 -107 -22 -15 5 111 71
187 98 66 24 158 24 210 0z m-180 -178 c-281 -57 -624 -141 -770 -188 l-20 -7
20 17 c64 53 270 130 445 165 113 23 277 38 350 31 l45 -4 -70 -14z m594 -27
c21 -22 22 -26 7 -26 -9 0 -31 7 -48 16 -31 16 -31 16 -24 -9 6 -24 5 -25 -35
-20 l-41 6 16 -26 c16 -24 16 -26 -2 -31 -10 -3 -40 1 -68 9 -77 23 -101 20
-124 -17 -25 -41 -25 -51 -1 -38 30 15 33 13 26 -20 l-7 -31 66 7 c36 4 66 4
66 0 0 -13 -53 -101 -82 -134 -28 -33 -35 -52 -19 -52 5 0 15 7 22 17 13 14
15 13 19 -13 5 -26 -4 -37 -72 -104 -43 -41 -78 -81 -78 -89 0 -7 36 19 80 59
l79 72 14 -34 c14 -32 13 -34 -24 -74 -38 -43 -61 -80 -74 -124 -7 -24 -6 -24
27 8 19 17 37 32 41 32 4 0 7 -74 7 -164 0 -204 18 -315 65 -413 46 -93 84
-126 139 -121 23 3 50 8 61 13 17 8 18 7 7 -7 -36 -45 -112 -46 -176 -3 -43
29 -49 12 -11 -29 25 -27 97 -65 124 -66 7 0 31 -16 52 -35 l39 -35 -33 0
c-18 0 -50 9 -72 20 -21 11 -40 19 -41 17 -9 -9 31 -87 58 -109 18 -16 27 -28
20 -28 -32 0 -86 34 -135 84 -30 31 -61 56 -70 56 -22 0 -32 -42 -19 -80 12
-34 11 -35 -27 -15 -51 26 -63 97 -29 171 l11 24 33 -35 c28 -31 62 -49 52
-27 -2 4 -26 54 -54 112 -28 58 -71 159 -94 225 -89 250 -119 286 -278 323
l-34 7 44 60 c25 33 90 112 146 175 55 63 99 116 97 119 -5 4 -73 -40 -155
-100 l-45 -33 25 30 c13 16 67 73 120 127 52 53 91 97 87 97 -4 0 -64 -25
-134 -55 -70 -30 -129 -52 -132 -50 -2 3 15 27 38 55 23 27 39 50 36 50 -3 0
-40 -15 -81 -34 -52 -25 -72 -30 -65 -19 5 9 57 65 117 125 112 112 112 114
-1 63 -82 -37 -112 -48 -100 -37 52 46 175 139 204 154 40 21 109 23 196 7 55
-10 61 -9 114 19 63 32 83 29 130 -22z m192 -72 c107 -32 104 -39 -21 -44
l-115 -5 34 -24 c19 -14 63 -36 99 -51 36 -15 67 -31 69 -36 2 -6 -26 -15 -62
-21 -81 -14 -188 -66 -283 -139 -41 -31 -75 -54 -77 -52 -2 2 -6 14 -9 28 -7
29 2 37 128 112 44 27 71 48 60 48 -26 -1 -95 -33 -148 -69 -48 -33 -55 -33
-49 3 3 16 25 35 69 61 35 21 64 39 64 40 0 4 -82 -15 -92 -21 -19 -12 -6 18
23 51 21 24 46 39 77 47 26 6 42 13 37 14 -6 1 -23 5 -38 9 -45 9 -16 35 40
35 39 0 44 2 33 15 -11 13 -5 15 47 15 33 0 84 -7 114 -16z m-951 -50 c-107
-51 -399 -169 -445 -180 l-30 -7 25 20 c32 26 111 66 225 114 l90 38 -45 2
-45 1 34 14 c38 17 184 42 246 42 38 1 36 -1 -55 -44z m-505 -103 c-49 -15
-105 -35 -124 -45 -53 -28 -126 -102 -186 -187 -49 -70 -79 -99 -101 -99 -4 0
0 8 10 18 9 11 27 47 41 81 45 115 83 159 177 207 67 34 142 53 213 53 l60 0
-90 -28z m459 -30 c16 -6 11 -12 -31 -39 -27 -18 -59 -32 -71 -32 -30 0 -174
-47 -197 -64 -18 -13 -14 -14 40 -10 l60 5 -22 -19 c-31 -28 -29 -30 17 -22
51 9 51 -2 -1 -33 l-41 -25 -52 18 c-60 20 -152 66 -160 79 -3 5 54 30 127 56
72 26 144 54 159 61 54 28 135 40 172 25z m63 -43 c-9 -13 -37 -58 -62 -101
-56 -95 -98 -142 -189 -215 -38 -31 -100 -85 -138 -120 -38 -36 -71 -63 -73
-60 -3 3 17 39 44 81 36 54 75 96 142 152 51 42 121 112 155 154 57 71 117
131 131 131 3 0 -2 -10 -10 -22z m1042 13 c12 -8 12 -14 1 -40 -14 -35 -22
-38 -41 -15 -11 14 -15 13 -30 -7 -14 -19 -20 -21 -33 -10 -13 11 -17 9 -27
-13 -13 -29 -24 -33 -36 -13 -5 7 -10 -10 -14 -44 -3 -30 -15 -68 -25 -84
l-19 -29 -8 44 c-5 25 -17 66 -27 93 l-18 47 51 27 c28 14 67 31 87 39 41 15
119 18 139 5z m-1710 -153 c-48 -97 -109 -185 -191 -278 -40 -47 -106 -128
-145 -180 -111 -149 -139 -166 -107 -64 28 88 87 170 211 288 69 67 126 132
145 165 34 58 94 131 109 131 5 0 -5 -28 -22 -62z m660 -150 c-17 -34 -42
-107 -56 -162 -14 -55 -31 -113 -40 -129 -8 -16 -12 -31 -10 -34 7 -6 91 31
127 57 17 12 30 18 30 14 0 -19 -59 -81 -146 -151 -52 -42 -108 -98 -125 -124
-16 -25 -49 -100 -73 -166 -59 -163 -117 -253 -200 -314 -55 -41 -67 -36 -24
9 79 80 135 207 183 412 22 94 51 151 131 262 44 63 70 111 89 170 37 111 68
171 102 197 44 32 46 26 12 -41z m656 -12 c15 -15 28 -46 36 -85 15 -70 29
-62 29 17 0 28 4 52 8 52 37 0 42 -86 12 -200 -23 -89 -25 -168 -6 -215 l15
-35 -42 -28 c-62 -41 -97 -55 -102 -39 -32 96 -49 284 -36 394 20 163 36 189
86 139z m-1296 -57 c-116 -128 -138 -168 -199 -349 -53 -160 -90 -229 -169
-313 -47 -50 -83 -77 -135 -102 -80 -38 -211 -68 -277 -63 l-44 3 80 29 c159
58 246 105 311 170 70 70 106 136 158 286 47 132 85 204 149 276 47 52 156
134 180 134 5 0 -20 -32 -54 -71z m429 -121 c-70 -146 -205 -290 -331 -353
-39 -19 -72 -33 -75 -30 -3 3 -3 6 -1 8 2 2 35 25 72 51 60 42 127 114 127
137 0 4 -24 1 -52 -7 -29 -7 -78 -14 -108 -14 l-55 0 84 35 c122 50 214 108
295 185 39 38 73 67 75 64 2 -2 -12 -36 -31 -76z"/>
</g>
</svg>
