<?xml version="1.0" standalone="no"?>
<!DOCTYPE svg PUBLIC "-//W3C//DTD SVG 20010904//EN"
 "http://www.w3.org/TR/2001/REC-SVG-20010904/DTD/svg10.dtd">
<svg version="1.0" xmlns="http://www.w3.org/2000/svg"
 width="860.000000pt" height="690.000000pt" viewBox="0 0 860.000000 690.000000"
 preserveAspectRatio="xMidYMid meet">
<metadata>
Created by potrace 1.16, written by Peter Selinger 2001-2019
</metadata>
<g transform="translate(0.000000,690.000000) scale(0.100000,-0.100000)"
fill="#000000" stroke="none">
<path d="M5720 6290 c0 -5 8 -25 17 -45 25 -52 11 -58 -80 -40 -42 9 -93 15
-114 13 l-38 -3 42 -23 c46 -24 82 -68 67 -81 -5 -4 -29 -13 -54 -20 -50 -14
-110 -48 -110 -62 0 -5 14 -9 31 -9 18 0 48 -10 68 -22 l36 -23 -30 -2 c-16
-2 -138 -7 -270 -13 -262 -11 -348 -24 -464 -72 -53 -22 -91 -47 -135 -90
l-61 -58 52 6 c97 12 97 -3 -2 -55 -49 -26 -126 -69 -171 -95 -102 -59 -179
-86 -244 -86 -28 0 -50 -5 -50 -10 0 -12 34 -45 71 -71 l23 -16 -40 -36 c-39
-34 -84 -106 -99 -155 -7 -23 -6 -23 22 -9 60 32 114 22 133 -23 11 -27 10
-33 -24 -78 -19 -27 -111 -121 -205 -210 -180 -173 -222 -226 -252 -323 -26
-84 -26 -90 10 -76 21 8 36 7 60 -2 27 -12 31 -18 31 -51 0 -41 -21 -67 -100
-124 -54 -38 -59 -67 -15 -78 17 -4 50 -13 73 -18 l44 -11 -59 -62 c-76 -79
-103 -119 -203 -302 -169 -310 -251 -382 -665 -585 -260 -127 -353 -187 -458
-293 l-77 -79 -146 35 c-174 43 -255 79 -325 144 -101 94 -149 183 -254 468
-125 343 -197 443 -388 541 -112 57 -177 101 -177 118 0 7 -7 36 -16 65 -19
66 -81 136 -149 167 -55 26 -152 32 -202 13 l-28 -11 45 -13 c69 -19 93 -30
123 -60 40 -40 34 -61 -8 -31 -68 48 -255 62 -335 25 l-45 -21 47 -24 c26 -13
96 -71 156 -128 60 -57 123 -111 141 -120 52 -28 119 -31 183 -9 51 18 60 18
95 5 50 -20 127 -74 166 -119 87 -97 129 -194 213 -486 92 -323 130 -405 238
-512 92 -91 170 -130 409 -204 104 -33 190 -61 192 -63 3 -2 -2 -36 -10 -74
-8 -38 -22 -189 -30 -336 -8 -147 -22 -300 -29 -340 -35 -178 -89 -272 -197
-343 -45 -30 -75 -58 -86 -79 -15 -32 -14 -36 13 -102 l29 -69 0 -325 c0 -312
1 -327 22 -372 28 -62 59 -69 184 -38 57 14 106 21 135 17 43 -4 44 -4 44 26
0 23 12 42 55 83 46 45 55 59 55 89 0 48 -25 69 -106 89 -38 9 -75 21 -83 25
-16 11 -30 120 -31 247 l0 100 37 44 c81 95 144 135 331 209 283 113 362 181
464 399 123 264 161 338 214 418 78 119 207 247 307 303 43 24 80 41 83 39 2
-3 -43 -52 -100 -108 -95 -94 -136 -147 -136 -179 0 -6 30 14 67 45 122 104
271 188 467 265 111 44 376 122 385 114 12 -13 -33 -37 -169 -90 -356 -140
-659 -334 -821 -526 -66 -79 -66 -76 -10 -99 62 -27 90 -57 98 -104 7 -47 -13
-101 -87 -228 -67 -115 -91 -185 -69 -199 54 -35 186 -39 379 -14 172 23 232
16 306 -37 75 -54 112 -58 245 -23 80 21 117 26 161 21 52 -5 57 -4 64 17 3
12 37 54 75 93 38 40 69 78 69 86 0 26 -57 94 -93 111 -45 22 -154 22 -288 1
-136 -22 -268 -16 -327 15 -24 12 -45 28 -48 36 -7 18 92 141 173 216 77 71
147 107 319 163 77 26 165 61 195 79 99 59 134 165 128 383 l-4 122 80 6 c231
19 508 118 641 228 l45 37 -37 16 c-92 38 -243 64 -507 86 -214 18 -175 31
105 37 275 5 403 -9 567 -64 128 -42 208 -90 284 -167 l58 -58 52 17 c234 76
541 275 782 507 127 122 166 170 274 337 75 116 131 174 185 189 45 12 80 2
148 -39 68 -42 97 -45 250 -30 93 10 147 11 190 4 67 -12 58 -17 121 81 18 28
48 60 68 73 35 23 35 23 26 70 -9 42 -7 53 17 99 32 64 32 74 3 101 -35 33
-85 50 -183 62 -128 16 -183 29 -235 57 -44 23 -48 24 -80 9 -19 -9 -56 -31
-83 -51 -26 -19 -57 -35 -69 -35 -11 0 -50 12 -86 27 -55 23 -81 27 -156 27
-54 0 -99 -4 -112 -12 -22 -12 -23 -11 -23 31 0 24 -7 66 -15 93 -8 27 -15 59
-15 71 0 21 -2 20 -50 -12 -129 -87 -240 -31 -240 122 0 32 4 63 8 68 4 6 48
24 97 39 103 32 230 45 265 26 21 -11 22 -16 16 -72 -4 -32 -10 -66 -13 -74
-4 -12 0 -13 23 -4 59 22 104 81 169 216 42 87 75 142 101 168 l39 38 -40 35
c-22 19 -125 77 -230 128 -227 113 -278 152 -331 259 l-36 74 -139 66 c-128
61 -139 68 -140 94 0 15 -6 42 -13 60 -14 40 -45 55 -331 157 -216 77 -385
155 -464 214 -60 45 -61 45 -61 31z m1056 -842 c46 -12 84 -27 84 -33 0 -6
-11 -26 -25 -45 -14 -19 -25 -40 -25 -47 0 -19 -4 -18 -84 38 -54 38 -85 52
-120 56 -25 3 -46 9 -46 13 0 14 64 40 99 40 18 0 71 -10 117 -22z m-1416
-368 c47 -6 121 -20 165 -31 103 -27 286 -116 348 -169 45 -40 105 -125 94
-136 -2 -3 -35 18 -72 46 -248 187 -623 250 -925 154 -41 -13 -76 -21 -79 -18
-8 7 52 64 94 90 57 33 120 54 190 63 87 12 92 12 185 1z m215 -348 l70 -17
-105 -6 c-194 -12 -322 -58 -589 -211 -144 -83 -295 -155 -366 -173 -134 -36
-303 -26 -412 22 l-38 18 40 2 c198 13 332 56 645 208 241 116 356 159 470
175 81 11 193 4 285 -18z m364 -276 c161 -45 273 -148 299 -273 7 -36 10 -38
49 -41 80 -6 111 24 195 187 50 97 78 122 145 128 40 4 68 -3 171 -43 67 -26
122 -51 122 -55 0 -11 -119 -102 -187 -143 -34 -20 -100 -54 -147 -76 -88 -41
-367 -143 -423 -155 l-32 -6 6 68 c15 176 -76 283 -287 340 -88 24 -398 24
-514 0 -44 -9 -81 -15 -83 -13 -3 2 31 18 74 34 67 26 124 40 263 66 51 9 296
-3 349 -18z"/>
<path d="M6925 3396 c-49 -51 -144 -131 -210 -180 -66 -49 -166 -123 -222
-165 -57 -42 -103 -79 -103 -83 0 -10 116 -46 220 -67 52 -11 181 -32 285 -46
203 -28 337 -55 423 -87 41 -15 56 -27 71 -56 40 -78 113 -117 248 -133 109
-12 211 -27 240 -35 19 -5 23 0 33 35 l11 41 57 -2 c66 -2 82 4 82 35 1 33 33
97 74 145 41 50 43 59 17 110 -55 107 -173 154 -304 122 l-42 -11 -57 54 c-67
64 -165 116 -373 201 -168 69 -244 110 -314 172 l-46 40 -90 -90z"/>
</g>
</svg>
