<?xml version="1.0" standalone="no"?>
<!DOCTYPE svg PUBLIC "-//W3C//DTD SVG 20010904//EN"
 "http://www.w3.org/TR/2001/REC-SVG-20010904/DTD/svg10.dtd">
<svg version="1.0" xmlns="http://www.w3.org/2000/svg"
 width="982.000000pt" height="562.000000pt" viewBox="0 0 982.000000 562.000000"
 preserveAspectRatio="xMidYMid meet">
<metadata>
Created by potrace 1.16, written by Peter Selinger 2001-2019
</metadata>
<g transform="translate(0.000000,562.000000) scale(0.100000,-0.100000)"
fill="#000000" stroke="none">
<path d="M6215 5609 c-1175 -25 -2273 -205 -2910 -479 -200 -86 -444 -240
-965 -610 -440 -313 -671 -453 -824 -499 -90 -28 -215 -27 -602 1 -190 14
-397 22 -569 22 -241 1 -274 -1 -302 -17 -18 -10 -33 -25 -33 -33 0 -22 119
-143 220 -224 195 -155 409 -276 600 -340 144 -48 190 -92 190 -183 0 -63 -22
-118 -84 -211 -30 -45 -74 -124 -97 -178 -51 -117 -99 -183 -163 -222 -42 -27
-59 -31 -140 -34 -62 -3 -110 1 -152 12 -84 22 -129 21 -154 -4 -28 -28 -26
-74 10 -189 16 -53 37 -123 46 -156 20 -75 60 -115 170 -172 99 -52 163 -70
289 -82 99 -10 197 -28 306 -56 145 -38 479 -81 824 -106 171 -13 819 -18 830
-7 4 4 -15 53 -43 110 -61 125 -125 294 -125 328 0 14 6 38 12 55 l12 30 41
-65 c23 -36 85 -132 138 -215 53 -82 122 -194 153 -247 64 -109 173 -258 266
-363 76 -85 133 -180 184 -305 114 -274 140 -587 62 -740 -27 -52 -54 -79
-187 -184 -53 -42 -104 -86 -112 -98 -14 -20 -14 -24 0 -39 16 -18 99 -43 174
-53 57 -8 166 7 250 34 57 18 70 28 109 76 24 31 65 71 91 90 73 52 100 129
141 397 11 72 53 260 94 417 41 157 79 309 85 338 16 86 7 114 -171 556 -93
232 -114 294 -122 361 -6 54 -6 92 0 111 l10 29 23 -55 c37 -86 141 -286 204
-388 70 -116 106 -185 121 -237 l12 -40 129 -17 c271 -36 639 -69 891 -80 413
-19 755 8 1168 92 291 59 491 124 725 236 86 41 167 74 180 74 34 0 98 -31
269 -130 79 -45 180 -99 225 -120 98 -45 262 -102 281 -98 16 3 -59 190 -185
458 -60 130 -73 166 -77 220 -3 37 0 78 6 94 l12 29 50 -88 c28 -48 75 -124
105 -168 158 -230 320 -693 399 -1137 32 -179 51 -525 37 -656 l-10 -87 -126
-121 c-126 -122 -164 -176 -151 -217 6 -17 17 -19 139 -19 285 0 473 64 522
176 7 17 20 75 29 130 18 112 36 157 153 366 231 414 281 566 253 758 -6 41
-16 198 -22 348 l-12 273 120 122 c229 235 379 470 461 722 50 155 57 210 56
455 -1 249 -18 387 -74 609 -88 349 -260 675 -473 898 l-50 51 27 45 c22 38
78 87 100 87 3 0 6 -18 6 -40 0 -109 80 -215 186 -246 129 -37 254 4 303 101
22 42 26 63 26 135 0 94 -12 125 -67 181 -36 36 -113 74 -170 84 -44 8 -45 13
-18 48 27 34 93 64 158 73 59 8 62 19 12 48 -24 15 -58 21 -121 24 -76 4 -94
1 -134 -18 -53 -26 -113 -95 -141 -164 -16 -39 -24 -46 -59 -55 -54 -14 -127
-62 -184 -121 -52 -54 -62 -58 -82 -34 -7 8 -66 51 -132 95 -274 183 -591 307
-957 373 -265 48 -488 65 -960 72 -184 2 -353 6 -375 7 -22 1 -184 -1 -360 -4z
m3323 -494 c72 -22 112 -58 112 -100 0 -50 -18 -82 -58 -101 -91 -43 -166 45
-147 172 7 50 13 52 93 29z"/>
<path d="M7365 1833 c102 -243 112 -463 30 -648 -60 -133 -139 -357 -169 -476
-32 -125 -33 -126 -143 -291 -121 -180 -178 -276 -170 -284 3 -3 40 -12 83
-19 93 -17 215 -19 264 -5 42 12 116 83 178 170 25 36 99 119 165 185 65 66
130 138 143 160 13 23 49 140 83 270 33 127 66 246 74 265 27 62 116 456 105
464 -2 2 -70 22 -153 46 -158 44 -303 96 -419 149 -80 36 -80 36 -71 14z"/>
<path d="M4177 1613 c3 -32 8 -92 13 -133 7 -66 4 -88 -21 -185 -16 -60 -37
-147 -45 -192 -16 -79 -16 -85 5 -185 60 -283 64 -310 65 -478 1 -151 -1 -170
-22 -219 -29 -68 -21 -77 69 -92 100 -16 242 7 278 45 25 27 35 77 56 277 25
241 43 335 82 433 20 50 84 223 144 386 l107 295 -116 11 c-147 15 -311 39
-472 70 -69 13 -130 24 -137 24 -8 0 -10 -17 -6 -57z"/>
</g>
</svg>
