<?xml version="1.0" standalone="no"?>
<!DOCTYPE svg PUBLIC "-//W3C//DTD SVG 20010904//EN"
 "http://www.w3.org/TR/2001/REC-SVG-20010904/DTD/svg10.dtd">
<svg version="1.0" xmlns="http://www.w3.org/2000/svg"
 width="1000.000000pt" height="1000.000000pt" viewBox="0 0 1000.000000 1000.000000"
 preserveAspectRatio="xMidYMid meet">
<metadata>
Created by potrace 1.16, written by Peter Selinger 2001-2019
</metadata>
<g transform="translate(0.000000,1000.000000) scale(0.100000,-0.100000)"
fill="#000000" stroke="none">
<path d="M2605 9843 c4 -10 8 -25 9 -33 0 -8 20 -44 44 -80 47 -73 50 -67 -39
-84 -33 -6 -38 -3 -62 31 -15 21 -27 34 -27 29 0 -4 9 -21 21 -38 12 -16 20
-31 18 -32 -2 -2 -35 -14 -74 -26 -92 -30 -204 -82 -345 -160 -190 -105 -477
-244 -618 -301 -114 -45 -137 -51 -153 -40 -17 10 -20 9 -17 -5 2 -13 -12 -21
-62 -35 -87 -25 -94 -24 -115 16 -11 19 -21 33 -23 31 -2 -2 4 -18 12 -35 21
-40 22 -39 -22 -50 -55 -16 -57 -15 -91 36 -35 53 -41 47 -10 -11 11 -21 19
-39 17 -41 -2 -1 -32 -8 -68 -14 l-65 -11 -33 35 c-17 19 -32 39 -32 45 0 13
51 -10 67 -30 6 -8 14 -12 18 -8 9 8 -24 70 -34 64 -4 -3 -25 20 -47 51 -39
57 -58 59 -29 3 20 -38 15 -48 -10 -20 -29 32 -34 24 -19 -27 l14 -48 -33 35
c-17 19 -52 58 -76 85 -24 28 -41 41 -37 30 6 -20 6 -20 -11 1 -10 11 -26 31
-36 45 -29 40 -7 0 61 -108 60 -98 85 -130 62 -80 -9 19 -9 20 2 3 7 -10 23
-31 36 -46 29 -36 28 -40 -8 -40 -29 0 -41 11 -144 125 -16 17 -9 3 15 -32 36
-53 41 -66 32 -85 -10 -22 -15 -19 -104 72 -51 52 -82 80 -70 62 16 -23 21
-40 17 -58 l-7 -26 -21 27 c-32 41 -32 22 1 -34 25 -41 27 -51 14 -51 -8 0
-33 16 -54 35 -22 19 -44 35 -50 35 -12 0 -3 -57 12 -76 14 -17 49 -125 39
-119 -17 11 -19 -12 -5 -66 17 -64 18 -79 5 -79 -17 0 -119 105 -126 130 -5
18 10 7 56 -43 63 -68 90 -84 51 -29 -26 37 -160 156 -167 149 -7 -7 31 -80
50 -96 16 -14 41 -79 33 -87 -3 -3 -29 26 -58 65 -30 38 -60 70 -67 70 -7 1
-23 8 -36 16 -13 9 -28 14 -34 13 -6 -2 -35 23 -65 56 -30 32 -61 56 -68 54
-8 -3 -17 -26 -20 -54 -6 -48 -5 -51 52 -128 33 -44 59 -90 59 -102 0 -48 45
-142 107 -223 97 -125 97 -136 2 -66 -34 25 -67 45 -74 45 -7 0 -16 7 -19 16
-4 10 -2 13 7 8 6 -4 -8 14 -33 40 -43 44 -70 58 -70 35 0 -6 18 -52 41 -101
22 -50 38 -93 34 -96 -3 -3 -17 5 -32 19 -24 22 -26 22 -20 4 l7 -20 -18 20
c-10 11 -29 29 -42 40 l-25 20 23 -26 c28 -33 30 -60 2 -34 -35 32 -23 -4 18
-54 22 -25 47 -59 56 -76 16 -27 16 -28 1 -7 -21 26 -40 29 -31 5 3 -10 -10 0
-29 21 -19 22 -35 36 -35 32 0 -4 27 -60 60 -125 33 -65 60 -129 60 -142 -1
-22 -3 -21 -33 15 -86 106 -83 96 15 -51 38 -57 66 -103 63 -103 -3 0 -41 45
-85 101 -85 107 -103 107 -44 0 20 -36 29 -59 20 -52 -23 19 -20 2 9 -44 36
-58 31 -60 -20 -7 l-45 47 0 -261 0 -260 41 -55 c22 -30 52 -63 66 -75 15 -11
22 -24 16 -27 -10 -6 -92 73 -111 108 -9 15 -12 -189 -12 -771 0 -722 2 -793
17 -805 15 -13 15 -12 4 9 -6 12 -10 22 -8 22 6 0 127 -147 127 -154 0 -3 -16
1 -35 7 -23 8 -47 29 -70 61 l-35 50 0 -302 c0 -285 1 -302 19 -311 10 -6 56
-55 102 -108 45 -54 103 -117 127 -140 57 -54 42 -55 -34 -2 -77 53 -127 101
-114 109 9 6 -55 74 -87 94 -10 6 -13 -104 -12 -536 l0 -543 126 -95 c69 -52
157 -116 194 -141 48 -32 65 -49 58 -56 -7 -7 2 -15 31 -27 51 -20 92 -20 131
-1 21 12 34 13 48 5 29 -15 34 -13 27 15 -9 34 2 31 45 -11 l37 -36 -25 -61
c-14 -34 -32 -78 -41 -97 -8 -19 -27 -69 -42 -110 -23 -66 -32 -79 -77 -113
-42 -31 -62 -59 -113 -153 -133 -245 -155 -358 -75 -384 53 -18 59 -31 40 -90
l-17 -50 -49 0 c-27 0 -66 -7 -87 -16 l-37 -15 54 -48 c35 -31 50 -50 43 -55
-16 -10 -29 0 -47 34 -15 30 -55 59 -55 41 0 -5 18 -32 40 -60 55 -70 32 -74
-27 -5 -109 128 -112 131 -113 107 0 -12 8 -28 17 -35 27 -20 133 -145 133
-156 0 -26 -25 -22 -58 10 -67 61 -83 73 -90 62 -4 -5 -18 -14 -30 -20 -23 -9
-22 -11 39 -59 35 -28 70 -55 78 -61 13 -10 10 -19 -22 -68 -20 -31 -35 -56
-33 -56 3 0 25 21 49 47 40 42 47 46 61 33 11 -8 16 -25 14 -44 -3 -26 -8 -31
-38 -37 -22 -5 -47 -21 -67 -44 -25 -29 -36 -35 -54 -30 -20 7 -19 3 11 -38
l32 -46 -23 -38 c-12 -21 -24 -40 -25 -42 -2 -2 -9 1 -16 6 -7 5 -21 13 -30
16 -17 6 -18 -6 -17 -156 l0 -162 17 44 c18 48 38 63 45 34 3 -13 5 -11 6 7 1
14 12 49 26 78 14 30 25 59 25 65 1 7 23 48 50 92 27 44 62 100 77 125 15 25
51 71 81 104 29 32 65 77 79 100 30 47 41 56 60 49 7 -3 16 3 19 12 5 13 9 14
15 4 4 -8 1 -18 -9 -26 -13 -10 -13 -12 -2 -8 12 4 16 -5 18 -42 1 -26 7 -50
13 -54 7 -4 13 -24 15 -45 3 -22 6 -44 9 -51 2 -7 0 -15 -5 -18 -6 -4 -10 -12
-10 -18 0 -7 4 -6 11 3 8 12 9 12 8 -5 -4 -26 10 -66 28 -87 9 -10 13 -28 11
-43 -3 -14 1 -30 8 -35 14 -12 19 -7 28 35 4 17 9 38 12 48 4 11 0 17 -10 17
-11 0 -16 10 -16 33 0 17 -3 50 -6 72 -5 38 -5 39 11 20 16 -19 17 -18 11 20
-38 243 -55 531 -36 605 19 73 40 199 50 293 9 90 36 153 80 184 10 7 20 29
23 50 4 21 21 58 38 81 25 34 29 45 19 57 -15 18 -6 45 15 45 20 0 20 39 0 46
-19 8 -19 35 1 60 15 18 15 18 11 -9 -7 -43 18 -32 32 14 7 23 14 61 16 85 2
24 20 76 39 115 20 40 36 83 36 96 0 23 43 73 62 73 5 0 8 8 7 17 -6 53 157
297 316 472 28 31 74 84 104 118 29 35 58 63 64 63 7 0 25 16 40 35 15 19 42
42 58 51 22 11 30 21 26 34 -3 12 14 37 52 76 63 66 165 155 198 172 19 10 20
9 16 -8 -7 -27 18 -26 45 3 11 12 69 60 127 107 59 47 132 108 164 137 51 46
155 123 168 123 3 0 2 -11 -1 -25 -9 -37 8 -31 55 20 23 25 49 45 57 45 11 0
4 -12 -21 -38 -20 -21 -37 -41 -37 -45 0 -19 32 -3 65 34 20 22 39 39 42 36 8
-8 -15 -44 -93 -147 -41 -54 -74 -104 -74 -111 1 -8 37 24 80 71 84 88 99 97
51 27 -39 -57 -63 -106 -59 -119 2 -6 12 2 23 18 24 38 137 165 142 161 2 -2
-12 -31 -31 -63 -19 -32 -47 -81 -62 -109 -15 -27 -39 -68 -53 -90 -36 -54
-63 -114 -56 -126 12 -18 23 -8 39 36 10 24 21 43 25 42 12 -3 51 47 116 148
32 50 63 95 69 100 6 6 33 44 61 85 73 111 108 153 230 280 61 63 125 140 142
170 17 30 61 84 97 120 36 35 66 73 66 83 0 10 12 30 28 44 45 43 133 105 139
99 6 -6 -26 -55 -106 -166 -22 -30 -52 -75 -67 -100 -15 -25 -45 -64 -67 -88
-21 -24 -36 -46 -33 -49 6 -6 74 48 75 60 1 5 12 20 26 35 35 39 123 152 143
186 9 16 43 59 75 95 32 36 71 82 85 103 25 33 109 94 118 85 3 -2 -28 -53
-67 -112 -39 -60 -73 -116 -77 -124 -12 -35 63 49 114 127 31 46 58 82 60 79
3 -3 -8 -35 -25 -71 -16 -36 -26 -68 -21 -71 8 -5 24 22 114 187 17 32 36 60
43 62 14 6 10 -26 -18 -167 -19 -93 -19 -100 -3 -118 12 -14 15 -29 11 -59 -6
-48 9 -52 28 -7 l14 32 1 -27 c0 -47 36 -36 62 19 13 26 29 49 36 51 11 3 10
-3 -2 -27 -9 -17 -16 -33 -16 -36 1 -19 -34 -135 -51 -167 -17 -33 -39 -103
-39 -126 0 -12 -7 -34 -16 -47 -15 -24 -15 -25 4 -25 11 0 28 7 37 16 22 22
31 10 17 -21 -19 -40 -14 -50 11 -27 27 26 39 28 31 7 -8 -19 5 -19 26 0 16
14 18 14 23 -5 3 -11 1 -20 -5 -20 -6 0 -8 -9 -5 -20 3 -11 1 -23 -5 -26 -5
-3 -7 -17 -4 -30 4 -14 2 -24 -4 -24 -14 0 -12 -20 5 -54 18 -35 18 -36 0 -36
-11 0 -15 -11 -15 -38 0 -21 -5 -43 -11 -49 -10 -10 -25 -56 -65 -203 -8 -30
-24 -74 -35 -97 -10 -24 -19 -52 -19 -63 0 -12 -7 -34 -15 -50 -8 -16 -11 -31
-6 -34 11 -7 8 -55 -6 -81 -17 -32 -43 -144 -42 -178 1 -20 3 -24 6 -12 2 11
11 38 20 60 8 22 19 51 24 63 l9 24 19 -23 19 -24 16 40 c18 43 15 68 -9 59
-8 -3 -15 -1 -15 4 0 16 18 24 25 12 11 -18 23 -1 45 65 12 36 25 65 30 65 16
0 18 -57 4 -135 -8 -44 -14 -81 -14 -82 0 -2 5 -3 10 -3 6 0 10 8 10 18 0 18
16 67 55 171 9 24 23 83 31 130 19 109 22 121 38 121 16 0 37 158 23 167 -15
9 7 133 24 133 16 0 4 -260 -17 -370 -5 -25 -3 -32 4 -25 22 21 62 297 62 432
0 48 2 54 15 43 13 -11 15 0 15 86 0 55 -5 133 -11 174 -5 41 -16 127 -24 190
-20 165 -86 320 -137 320 -11 0 -18 7 -18 19 0 12 -15 28 -42 43 -22 13 -46
32 -52 43 -6 11 -17 24 -24 28 -19 12 -77 135 -91 192 -7 28 -18 94 -25 147
-11 84 -11 115 5 241 21 169 67 358 117 482 11 28 32 93 48 145 15 52 44 131
65 175 49 104 94 304 104 465 3 43 9 67 19 72 12 7 14 23 10 76 -3 37 -10 90
-16 117 -6 28 -12 75 -12 105 -1 53 -2 55 -41 77 -22 12 -43 23 -47 23 -15 0
-8 -28 7 -34 9 -3 22 -20 29 -38 17 -40 26 -172 12 -158 -6 6 -18 10 -27 10
-10 0 -66 46 -125 103 -118 111 -108 96 57 -90 l108 -122 -9 -88 c-10 -88 -14
-104 -70 -288 -16 -55 -44 -147 -60 -204 -17 -58 -32 -106 -34 -108 -4 -4 -76
104 -76 114 0 5 9 -3 20 -17 11 -14 20 -20 20 -13 0 6 -4 15 -10 18 -18 11
-11 23 21 34 24 8 36 8 45 0 22 -18 16 -1 -15 44 -64 95 -77 149 -24 107 14
-11 28 -18 31 -16 5 6 -50 91 -97 150 -17 21 -28 42 -26 46 3 5 -4 24 -16 44
-20 34 -20 40 -8 144 l13 109 23 -28 c36 -42 109 -98 95 -73 -6 12 -18 26 -26
33 -9 8 -13 18 -10 23 3 5 -14 40 -39 76 -42 62 -45 73 -51 147 -12 173 -84
376 -181 508 -86 117 -106 142 -116 142 -9 0 -59 69 -59 82 0 4 14 -12 30 -37
16 -25 30 -40 30 -35 0 18 -51 86 -60 80 -5 -3 -17 6 -26 20 -26 39 -29 21 -4
-20 l22 -36 -68 44 c-38 24 -79 48 -92 51 -12 4 -37 19 -54 34 -18 15 -29 21
-24 15 8 -14 -12 -18 -30 -5 -5 4 -27 35 -48 70 -21 34 -42 59 -47 56 -6 -3
-8 -13 -4 -21 5 -14 3 -14 -11 -2 -16 13 -16 12 -5 -11 9 -19 5 -17 -18 10
-33 38 -41 61 -14 39 9 -8 5 4 -10 26 -23 33 -33 40 -61 40 -29 1 -32 -1 -23
-16 6 -10 14 -16 18 -13 4 2 13 -4 20 -13 12 -15 12 -16 -1 -8 -26 16 -47 15
-26 -1 11 -8 21 -20 22 -28 3 -18 46 -77 52 -71 3 2 -1 12 -9 21 -16 19 -21
47 -7 38 5 -3 7 -8 5 -11 -3 -2 8 -18 24 -36 28 -31 32 -46 7 -31 -7 5 -19 9
-27 9 -21 0 -102 102 -95 119 3 8 1 17 -5 21 -6 3 -11 1 -11 -5 0 -6 -5 -8
-12 -4 -7 4 -8 3 -4 -5 4 -6 11 -9 15 -7 4 3 7 -9 6 -27 -1 -18 5 -43 13 -57
8 -14 -2 -6 -23 18 -48 55 -61 53 -30 -4 14 -26 25 -49 25 -50 0 -13 -48 0
-67 18 -23 22 -33 12 -11 -10 7 -7 8 -12 4 -12 -16 0 -91 74 -133 132 -41 56
-73 78 -58 41z m1234 -2072 c43 -61 39 -75 -5 -17 -49 65 -55 50 -10 -24 34
-54 36 -63 27 -93 -6 -17 -25 -79 -42 -137 -17 -58 -33 -112 -35 -120 -4 -10
-14 0 -34 30 -26 42 -143 163 -125 130 9 -16 71 -93 122 -152 30 -34 31 -39
21 -78 l-11 -41 -26 25 c-40 39 -46 31 -16 -20 15 -26 24 -52 20 -62 -3 -9 -6
-54 -6 -99 0 -63 -3 -82 -12 -76 -7 4 -15 8 -19 8 -3 0 -10 4 -15 9 -5 5 -3 6
5 2 8 -5 12 2 12 23 0 34 -15 48 -35 31 -10 -8 -15 -8 -21 1 -5 8 -3 9 6 4 8
-5 11 -3 8 6 -3 8 -10 13 -16 12 -6 -2 -39 42 -73 97 -34 55 -64 98 -66 96
-11 -11 75 -161 149 -257 30 -40 64 -124 73 -184 6 -40 6 -40 -13 -19 -10 12
-24 47 -31 78 -7 31 -17 56 -22 56 -11 0 -11 -13 0 -42 5 -13 17 -50 26 -83
10 -33 24 -71 31 -85 8 -17 9 -31 3 -43 -12 -20 11 -68 47 -102 28 -26 44 -85
24 -85 -8 0 -21 -6 -29 -14 -9 -7 -41 -21 -71 -31 l-54 -18 -54 59 c-30 32
-109 119 -175 192 l-120 134 25 24 24 25 44 -53 c70 -83 153 -169 175 -180 11
-5 -3 12 -31 39 -29 26 -68 73 -89 103 l-37 55 53 -58 c30 -32 57 -57 62 -57
15 0 6 23 -28 67 -20 26 -33 53 -30 61 3 7 2 19 -2 25 -4 7 -8 17 -9 22 -1 6
-5 18 -9 28 -5 12 -2 17 10 17 15 0 15 3 5 15 -7 9 -10 19 -6 23 4 4 11 0 16
-8 5 -8 16 -24 25 -35 18 -22 -18 54 -44 94 -17 26 -24 81 -11 81 8 0 130
-231 130 -245 0 -3 -4 -3 -10 0 -16 10 -12 0 26 -64 38 -64 50 -75 39 -38 -6
19 -3 18 19 -8 l26 -30 -21 37 c-11 21 -25 36 -29 33 -10 -6 -55 54 -47 62 3
2 13 -9 22 -27 9 -18 19 -30 21 -27 3 3 -18 48 -47 101 -37 71 -50 105 -47
126 2 16 1 27 -3 25 -6 -5 -34 51 -28 57 1 2 -3 13 -10 26 -22 41 -3 23 23
-23 15 -25 29 -45 32 -45 8 0 -40 80 -63 106 -12 13 -23 27 -23 29 0 3 -3 11
-6 19 -3 8 1 24 9 36 14 21 15 20 36 -12 23 -37 28 -27 6 12 -16 28 -20 54 -5
30 5 -8 14 -15 20 -15 14 0 65 -60 97 -112 41 -70 38 -49 -6 35 -23 42 -34 68
-26 57 9 -11 20 -20 25 -20 4 0 12 -4 17 -9 5 -5 2 -6 -6 -1 -9 5 -12 3 -9 -6
3 -8 10 -13 16 -12 6 2 9 -3 7 -10 -7 -18 70 -134 89 -134 20 0 20 3 -3 35
-25 36 -76 139 -90 184 -7 20 -23 53 -37 73 -13 20 -24 40 -24 45 0 19 175
230 187 226 7 -3 10 1 7 9 -4 8 8 37 25 65 17 28 31 56 31 62 0 15 8 7 49 -51z
m-2887 -462 c176 -264 255 -373 310 -429 94 -95 112 -122 104 -156 -6 -22 -9
-24 -23 -12 -9 7 -22 28 -30 46 -7 17 -20 32 -28 32 -8 0 -15 6 -15 13 0 7
-30 44 -66 82 l-67 70 23 -45 c12 -25 34 -60 47 -78 l25 -33 -21 -20 c-12 -11
-21 -22 -21 -25 0 -9 32 -68 45 -84 7 -8 15 -31 18 -51 5 -33 3 -36 -26 -45
-37 -11 -50 -48 -20 -58 10 -4 26 -18 36 -32 16 -21 17 -30 7 -54 l-12 -29
-39 19 c-54 28 -71 26 -63 -6 l7 -26 -54 27 -53 27 51 -58 c28 -33 62 -69 76
-82 16 -15 23 -30 20 -43 -7 -25 -9 -25 -73 16 -94 60 -127 37 -42 -31 57 -46
73 -60 52 -49 -32 18 -347 286 -462 394 -32 30 -58 51 -58 46 0 -4 -7 -2 -15
5 -11 9 -12 16 -5 25 8 10 8 15 -1 21 -8 5 -9 3 -4 -7 8 -12 6 -12 -8 0 -19
15 -23 26 -5 15 8 -5 9 -1 5 12 -4 10 12 -3 36 -30 23 -27 55 -63 70 -80 l28
-31 -18 30 c-17 28 -15 27 33 -12 29 -24 55 -43 58 -43 3 0 -65 107 -152 238
-153 228 -256 390 -282 442 -11 22 -11 23 2 10 43 -45 273 -344 270 -352 -1
-6 13 -38 33 -73 19 -35 35 -68 35 -74 0 -7 25 -42 56 -79 76 -90 92 -105 67
-62 -11 19 -33 58 -48 85 l-27 50 38 -40 c50 -52 100 -95 89 -75 -5 8 -34 47
-65 85 -69 88 -116 162 -124 198 -3 15 -4 27 -2 27 9 0 116 -159 116 -172 0
-16 47 -64 55 -56 3 2 -27 52 -67 109 -39 57 -71 109 -71 116 0 7 -3 10 -7 8
-3 -2 -6 5 -6 15 0 28 30 8 73 -51 21 -28 44 -48 53 -47 23 5 24 62 1 113 -11
25 -18 45 -17 45 2 0 36 -43 75 -95 39 -52 74 -95 77 -95 4 0 0 9 -7 20 -8 11
-47 67 -87 125 -40 58 -71 105 -68 105 2 0 63 -81 136 -180 129 -177 193 -252
110 -130 -40 59 -39 68 3 32 9 -8 20 -13 23 -10 11 11 -28 70 -133 201 -58 73
-88 114 -67 92 155 -163 185 -192 190 -184 2 5 -22 49 -56 99 -33 49 -59 90
-56 90 2 0 39 -44 82 -97 44 -54 85 -104 92 -113 11 -13 11 -13 6 3 -4 11 -1
17 10 17 24 0 19 13 -20 51 -19 18 -44 53 -54 77 -11 24 -75 125 -143 225
-223 328 -225 340 -7 54 129 -169 243 -306 224 -267 -4 8 -55 83 -114 165 -88
123 -232 328 -344 490 l-21 30 35 -21 c26 -16 96 -113 272 -375z m360 195 c30
-5 45 -17 82 -64 l45 -58 -26 -109 c-14 -59 -27 -119 -30 -132 l-4 -24 -36 34
-36 34 22 -32 c12 -18 28 -36 36 -40 9 -5 11 -13 6 -22 -7 -10 -17 -4 -42 25
-19 21 -45 50 -59 64 -58 60 -160 204 -160 226 0 13 2 24 5 24 2 0 34 -41 71
-90 36 -50 70 -88 75 -85 5 4 6 0 4 -8 -3 -7 3 -22 15 -32 11 -10 20 -15 20
-10 0 4 7 2 15 -5 24 -20 18 -3 -20 53 -19 28 -35 59 -35 67 0 9 -18 34 -40
55 -43 42 -57 74 -15 35 40 -38 41 -15 1 39 -36 49 -36 50 -14 54 37 7 80 7
120 1z m1908 -802 c109 -138 123 -157 97 -133 -15 14 -27 22 -27 19 0 -3 14
-35 30 -71 34 -76 36 -85 15 -67 -20 16 -19 0 1 -28 8 -12 13 -22 10 -22 -6 0
-113 139 -179 232 l-48 67 22 31 c13 16 25 30 28 29 3 0 26 -26 51 -57z m206
-55 c75 -60 174 -150 169 -155 -2 -2 -42 -21 -89 -42 l-84 -37 -42 66 c-35 54
-37 62 -15 41 l27 -25 -26 49 c-26 48 -34 86 -18 86 4 0 28 -34 52 -75 24 -41
50 -75 57 -75 19 0 18 4 -38 106 -28 52 -47 94 -42 94 4 0 26 -15 49 -33z
m-174 -248 l51 -47 -29 -16 c-27 -16 -27 -17 -4 -11 42 10 45 10 48 0 2 -5
-10 -15 -26 -22 -26 -11 -33 -9 -80 28 l-52 39 14 -35 c8 -19 19 -42 24 -52 8
-13 3 -20 -25 -35 -33 -18 -36 -18 -54 -2 -17 16 -18 19 -4 26 25 15 17 34
-25 63 -22 15 -40 35 -40 44 0 9 -16 43 -34 76 l-34 59 19 28 20 27 59 -59
c33 -33 65 -60 71 -60 8 0 8 4 2 13 -5 6 -31 40 -57 74 -42 54 -46 64 -36 83
11 21 16 16 77 -76 35 -55 87 -120 115 -145z m-291 -32 c57 -65 122 -164 116
-174 -3 -4 -27 -19 -53 -33 -39 -21 -48 -23 -52 -10 -3 8 -39 50 -80 93 -57
58 -73 80 -64 89 8 8 24 0 64 -33 29 -24 62 -51 73 -59 19 -14 19 -14 5 5 -8
11 -36 44 -62 73 -27 30 -45 58 -42 64 3 5 22 -10 42 -34 98 -115 111 -119 35
-12 -68 96 -56 116 18 31z m-2652 -42 c24 -31 48 -69 55 -85 13 -32 154 -200
168 -200 13 0 10 9 -20 53 -44 65 -48 74 -18 47 15 -13 44 -57 65 -96 l37 -71
-65 54 c-36 29 -74 53 -84 53 -17 0 -19 -5 -14 -40 3 -23 1 -40 -5 -40 -5 0
-6 -5 -3 -10 4 -6 11 -8 16 -4 5 3 8 2 7 -3 -1 -4 6 -22 15 -40 9 -18 17 -35
17 -38 0 -9 -220 285 -232 310 -5 11 21 -11 58 -50 37 -38 65 -62 61 -53 -3 9
-2 30 3 46 7 25 3 37 -27 78 -32 46 -86 144 -79 144 2 0 22 -25 45 -55z m2804
-178 c14 -21 12 -24 -27 -58 -22 -20 -52 -42 -66 -49 -14 -7 -33 -20 -42 -29
-48 -45 -208 -147 -208 -132 0 4 11 40 24 79 31 89 71 159 81 142 5 -8 -1 -20
-16 -31 -27 -21 -22 -24 15 -9 22 8 29 5 56 -28 32 -38 31 -28 -2 20 -18 26
-18 27 1 37 11 6 26 11 35 11 8 0 16 4 18 9 3 7 91 56 109 60 4 0 13 -9 22
-22z m-1493 -1138 c0 -6 -58 -68 -129 -139 -71 -70 -154 -160 -185 -198 -31
-39 -60 -73 -65 -76 -15 -10 -221 -299 -272 -381 -38 -64 -73 -112 -57 -80 59
118 253 402 361 530 47 55 337 355 344 355 2 0 3 -5 3 -11z m-1388 -781 c40
-43 108 -135 108 -146 0 -5 10 -17 22 -28 12 -10 18 -13 14 -6 -4 7 -2 12 5
12 6 0 9 8 6 20 -8 30 23 10 76 -51 69 -79 74 -91 47 -128 -24 -32 -40 -32
-40 -2 0 18 -114 151 -129 151 -4 0 -5 -15 -3 -32 6 -41 7 -42 -70 67 -109
155 -119 175 -87 175 12 0 35 -15 51 -32z"/>
<path d="M9153 9550 c3 -8 24 -62 47 -120 42 -106 68 -152 50 -89 -16 56 -11
57 13 2 13 -29 27 -56 31 -60 5 -4 6 -2 2 5 -9 16 18 27 42 16 21 -9 45 -5 54
9 9 16 9 17 63 -118 64 -160 136 -298 149 -285 12 12 -67 226 -83 223 -5 -2
-20 25 -32 58 -12 33 -35 78 -51 100 -15 21 -28 48 -28 60 0 20 1 21 25 5 13
-9 31 -16 39 -16 7 0 16 -7 20 -15 9 -25 29 -18 22 8 -4 12 -11 43 -16 70 -10
51 -28 92 -37 83 -3 -3 2 -26 11 -52 26 -78 17 -83 -20 -11 -19 37 -39 67 -45
67 -6 0 -9 -6 -6 -14 13 -34 19 -86 9 -86 -13 0 -72 66 -102 114 -13 22 -26
34 -28 28 -2 -6 13 -31 32 -55 31 -38 36 -51 36 -96 0 -31 -4 -50 -10 -46 -5
3 -34 42 -66 86 -31 44 -58 78 -60 76 -3 -3 3 -29 20 -82 4 -11 -14 18 -39 65
-25 47 -44 78 -42 70z"/>
<path d="M8960 9367 c17 -32 30 -61 27 -63 -3 -3 -11 4 -17 17 l-12 22 -13
-24 c-12 -21 -10 -26 20 -55 90 -84 158 -228 170 -359 l6 -60 -36 68 c-19 37
-37 67 -39 67 -5 0 5 -35 19 -75 10 -28 -113 160 -141 215 -12 25 -26 57 -29
73 -5 18 -14 27 -27 27 -12 0 -41 18 -65 40 -68 64 -70 57 -47 -155 4 -38 3
-46 -5 -35 -21 28 -41 -16 -41 -87 0 -76 -13 -87 -62 -49 -49 37 -80 83 -76
113 3 24 6 22 53 -37 28 -35 53 -68 57 -74 4 -6 10 -8 13 -4 4 3 -2 23 -13 45
-21 40 -158 170 -169 159 -8 -8 16 -87 32 -106 13 -14 18 -45 16 -82 -2 -37
-29 -15 -70 57 -24 41 -47 72 -52 69 -5 -3 -25 4 -45 17 -25 15 -39 18 -46 11
-8 -8 -22 5 -50 42 -66 90 -110 96 -124 20 -3 -19 -13 -41 -21 -49 -12 -12 -8
-25 29 -92 l43 -78 -4 -93 -3 -93 56 -98 c77 -136 75 -160 -8 -96 -25 19 -63
43 -85 55 -23 11 -41 25 -41 31 0 7 6 6 17 -2 31 -25 -25 48 -59 76 -46 38
-55 22 -39 -68 20 -111 24 -157 15 -157 -4 0 -21 12 -37 28 -29 26 -30 26 -24
4 3 -13 2 -22 -2 -20 -11 4 -107 120 -154 184 l-37 52 51 141 c29 78 50 144
47 146 -7 7 -1836 -913 -1877 -944 -45 -34 -91 -107 -170 -268 -36 -73 -68
-130 -73 -127 -4 3 -32 38 -62 77 -97 130 -329 351 -591 562 -60 49 -146 121
-190 162 -73 66 -105 87 -105 65 0 -4 5 -13 12 -20 9 -9 9 -12 -3 -12 -8 0
-30 16 -48 37 -25 28 -35 33 -44 24 -13 -13 16 -42 140 -143 32 -26 85 -71
118 -99 33 -28 83 -64 110 -80 28 -16 78 -55 112 -86 34 -32 89 -80 123 -108
38 -32 60 -57 60 -71 0 -11 9 -29 20 -39 27 -25 25 -38 -5 -31 -36 9 -31 -1
13 -23 23 -12 54 -42 77 -76 31 -44 41 -52 47 -40 18 31 26 12 27 -68 2 -116
13 -175 59 -313 57 -171 69 -221 54 -236 -16 -16 -15 -49 2 -95 8 -21 28 -99
46 -173 29 -126 94 -295 126 -329 10 -11 12 -2 9 55 -2 38 -5 70 -6 72 -1 1
-2 14 -4 30 -1 15 -5 39 -9 55 -7 21 -5 27 8 27 20 0 21 14 1 30 -8 7 -15 19
-15 26 0 8 7 14 15 14 20 0 19 9 -5 28 -13 11 -22 35 -26 65 l-7 48 44 -7 c53
-9 238 -99 246 -121 3 -8 35 -28 70 -44 35 -16 84 -42 109 -59 24 -17 49 -30
55 -28 14 5 -100 84 -162 112 -27 13 -57 31 -67 39 -20 18 -123 76 -204 115
-79 38 -78 57 5 47 34 -4 109 -11 167 -15 58 -4 86 -8 63 -8 -54 -2 -68 -22
-16 -22 21 0 80 -9 132 -20 52 -10 97 -19 100 -18 3 1 19 -4 34 -10 16 -7 40
-12 55 -12 l27 1 -25 15 -25 15 25 -7 c14 -3 48 -15 75 -25 57 -22 65 -23 65
-10 0 5 -16 15 -36 21 -19 7 -33 14 -30 17 3 4 49 -11 102 -32 76 -30 109 -50
155 -93 69 -63 103 -108 94 -122 -3 -5 -20 6 -37 26 -43 48 -62 30 -24 -24 35
-52 106 -109 106 -87 0 23 19 9 75 -55 46 -52 47 -55 26 -60 -22 -5 -22 -6 -4
-22 10 -9 36 -23 58 -30 46 -16 150 -137 118 -139 -14 0 -15 -2 -3 -6 22 -9
75 -61 68 -68 -3 -3 -20 6 -37 21 -18 14 -35 23 -39 19 -4 -3 2 -11 13 -17 32
-18 105 -90 105 -103 0 -14 22 -25 49 -25 13 0 21 -14 31 -53 7 -29 11 -61 9
-72 -3 -12 -36 -31 -109 -62 -125 -52 -165 -82 -65 -49 18 6 17 5 -2 -10 -13
-9 -23 -21 -23 -27 0 -7 4 -7 12 1 14 14 52 17 44 3 -6 -8 -96 -41 -113 -41
-4 0 -1 5 9 10 15 9 15 50 -1 50 -14 0 -33 -18 -28 -26 3 -5 -1 -18 -9 -29 -8
-10 -14 -16 -14 -13 0 4 -14 3 -30 -2 -38 -11 -31 3 10 20 16 7 30 17 30 22 0
5 -12 2 -27 -6 -16 -8 -54 -25 -85 -37 -32 -13 -58 -26 -58 -30 0 -17 63 -19
132 -5 148 31 260 84 279 133 5 14 29 32 61 46 30 13 78 44 109 69 79 65 88
68 182 68 76 0 239 21 277 36 12 5 11 8 -4 13 -14 5 7 13 68 25 48 10 90 15
93 12 7 -7 79 30 89 45 3 6 30 22 59 34 62 28 193 114 249 163 95 85 253 116
369 72 53 -20 85 -50 73 -68 -2 -4 20 -41 50 -81 30 -41 54 -81 54 -90 1 -9
10 -41 21 -71 30 -82 46 -186 59 -380 9 -137 16 -183 31 -213 10 -21 19 -47
19 -58 0 -11 6 -32 14 -47 17 -35 26 -99 32 -241 6 -142 -8 -145 -49 -10 -39
127 -40 130 -45 92 -2 -20 -9 -33 -18 -33 -28 0 -3 -114 31 -136 12 -8 27 -25
33 -39 6 -14 18 -25 27 -25 18 0 29 -40 20 -70 -6 -20 -8 -21 -26 -4 -10 9
-21 32 -25 50 -3 19 -11 34 -16 34 -6 0 -7 -16 -2 -42 19 -101 2 -164 -22 -83
l-12 40 -1 -68 c-1 -94 -21 -84 -38 19 -18 108 -34 139 -30 57 2 -40 -1 -61
-7 -60 -7 1 -10 -18 -8 -54 6 -91 -30 -87 -47 5 -14 75 -24 68 -17 -12 6 -62
5 -73 -9 -79 -21 -7 -32 9 -40 59 -4 21 -11 38 -17 38 -7 0 -8 -15 -4 -39 6
-40 0 -71 -14 -71 -12 0 -28 55 -36 120 -12 97 -24 91 -22 -10 3 -80 1 -94
-12 -91 -8 3 -33 5 -55 5 -37 1 -40 3 -51 41 l-12 40 -3 -40 c-4 -36 -7 -40
-29 -37 -14 1 -40 4 -58 5 -32 3 -52 19 -52 45 0 21 -18 13 -22 -10 -4 -27
-39 -36 -57 -14 -10 12 -16 12 -40 0 -34 -17 -61 -9 -61 17 0 10 -4 19 -10 19
-5 0 -10 -6 -10 -14 0 -25 -26 -35 -101 -40 -41 -2 -81 -6 -89 -10 -37 -15
-117 -36 -138 -36 -12 0 -50 -14 -84 -31 -34 -17 -82 -37 -107 -44 -58 -17
-166 -54 -209 -71 -18 -8 -41 -14 -52 -14 -11 0 -25 -9 -32 -19 -9 -15 -15
-17 -25 -9 -10 8 -19 5 -37 -11 l-24 -22 -22 30 c-27 39 -41 40 -30 2 7 -25
-3 -64 -12 -51 -2 3 -12 18 -22 33 -23 37 -33 27 -13 -13 18 -35 22 -33 -73
-55 -92 -21 -129 -19 -158 8 l-24 22 4 -30 c3 -26 0 -30 -23 -33 -20 -2 -34 6
-59 35 -31 37 -36 30 -14 -21 7 -18 4 -19 -44 -12 -34 4 -58 3 -71 -6 -17 -10
-24 -9 -44 10 -30 29 -39 28 -31 -3 5 -20 2 -25 -14 -25 -11 0 -25 7 -32 15
-9 11 -17 12 -33 3 -29 -15 -162 -4 -193 17 -14 9 -33 14 -41 11 -16 -6 -64 6
-118 29 -16 8 -65 24 -108 36 -127 36 -202 99 -211 177 -2 16 -14 45 -28 63
-61 82 -219 503 -234 622 -8 63 -17 82 -49 103 -23 15 -27 15 -49 1 -43 -29
-147 -242 -175 -363 -7 -27 -12 -75 -13 -105 0 -29 -5 -60 -11 -66 -5 -7 -6
-28 -3 -46 4 -19 3 -44 -2 -57 -8 -22 -10 -22 -209 -22 -110 -1 -205 2 -212 6
-6 4 -25 -3 -42 -14 -16 -12 -33 -20 -35 -17 -8 8 15 47 26 47 17 0 48 60 43
81 -3 10 -9 19 -13 19 -17 0 -71 -74 -103 -142 -41 -86 -49 -118 -37 -138 7
-12 12 -12 28 4 11 9 23 28 26 41 8 32 52 46 171 51 95 5 99 4 80 -12 -19 -16
-18 -16 20 -8 66 14 229 9 287 -9 140 -42 281 -88 358 -117 47 -17 128 -44
180 -61 52 -16 105 -36 117 -44 12 -8 27 -15 32 -15 5 0 22 -5 38 -12 l28 -11
-30 -7 c-19 -4 -25 -9 -15 -12 73 -26 181 -58 197 -58 11 0 28 -9 38 -20 12
-13 25 -18 37 -14 11 3 31 -2 45 -11 21 -14 53 -18 167 -19 94 -1 149 -6 165
-15 13 -7 21 -9 17 -3 -4 6 6 7 29 2 19 -4 37 -5 41 -1 4 3 5 -1 2 -9 -4 -12
4 -15 36 -16 l41 -2 -35 14 c-20 8 -26 13 -13 11 12 -1 33 9 47 22 14 14 26
22 26 18 0 -4 12 -2 27 4 36 13 60 4 43 -16 -18 -21 -35 -19 -19 3 7 9 0 6
-15 -8 -16 -14 -26 -20 -23 -14 8 14 -20 27 -28 14 -3 -4 1 -11 7 -13 10 -4
10 -6 1 -6 -7 -1 -13 -7 -13 -13 0 -9 18 -13 52 -14 30 -1 44 2 34 6 -12 4
-16 9 -9 13 6 4 18 1 25 -7 13 -12 16 -11 28 8 12 19 12 20 -3 7 -11 -9 -17
-10 -17 -2 0 6 3 11 8 12 16 1 72 9 84 11 7 2 21 11 32 21 21 18 51 24 41 7
-3 -6 1 -10 9 -10 9 0 15 5 13 11 -4 21 24 22 30 1 5 -22 52 -36 67 -21 6 5
-2 9 -22 9 -18 0 -32 5 -32 11 0 5 4 7 10 4 6 -4 7 1 3 11 -4 11 -3 15 5 10 6
-3 14 -1 17 4 4 6 17 10 28 9 12 0 24 0 27 1 10 3 45 10 69 12 13 2 28 12 34
25 5 12 14 20 18 17 5 -3 9 0 9 5 0 6 8 11 18 10 10 0 12 -3 5 -6 -7 -2 -13
-9 -13 -14 0 -18 -35 -46 -52 -44 -21 4 -24 -11 -4 -18 8 -3 20 1 26 9 7 8 17
14 23 14 6 0 0 -11 -12 -24 -17 -18 -19 -26 -10 -31 7 -5 10 -4 6 2 -9 14 19
37 33 28 6 -3 8 -10 5 -15 -3 -4 4 -6 15 -3 11 3 20 10 20 15 0 5 5 6 10 3 6
-3 17 0 25 9 11 11 12 16 2 19 -9 4 -8 8 3 17 13 9 12 11 -5 8 -15 -3 -19 -10
-17 -27 3 -16 0 -21 -8 -16 -7 4 -16 2 -20 -5 -4 -7 -13 -9 -19 -6 -8 5 -6 12
5 23 9 9 14 26 11 40 -2 12 0 23 5 23 5 0 6 5 2 12 -5 8 -2 9 9 5 9 -3 19 -1
23 5 4 7 9 6 15 -3 4 -8 3 -20 -4 -29 -11 -13 -10 -13 5 -1 10 7 15 17 12 22
-3 5 3 9 13 9 11 0 23 4 29 9 19 17 70 29 87 19 13 -7 15 -5 11 7 -5 11 -2 14
12 8 11 -4 15 -3 10 5 -9 15 49 30 97 24 37 -4 37 -5 21 -23 -12 -14 -20 -16
-25 -8 -4 8 -9 4 -14 -10 -5 -17 -12 -20 -33 -15 l-27 5 24 -14 c21 -12 21
-15 6 -21 -10 -3 -25 -1 -34 6 -14 12 -15 11 -2 -5 11 -13 22 -16 45 -11 38 8
44 13 29 22 -8 5 -9 13 -3 22 8 13 10 12 10 -2 0 -37 83 -17 133 32 28 28 55
41 43 22 -3 -5 1 -9 9 -9 27 0 -2 30 -31 33 -16 1 -23 0 -16 -3 24 -9 12 -25
-14 -19 -22 6 -25 4 -22 -16 2 -18 -2 -23 -19 -22 -12 0 -21 -4 -20 -10 1 -6
-4 -11 -10 -10 -46 4 -46 4 -33 19 7 8 16 13 20 10 5 -3 7 3 6 12 -4 21 11 33
40 33 12 0 42 11 68 25 26 14 52 23 57 20 5 -4 9 -2 9 3 0 13 40 23 54 14 6
-3 20 -8 30 -9 25 -4 34 -13 13 -13 -11 0 -15 -7 -12 -21 6 -31 15 -36 15 -10
0 12 4 19 10 16 6 -4 8 -11 5 -16 -3 -5 1 -6 10 -2 13 4 14 8 4 14 -15 9 -23
49 -9 49 6 0 10 -4 10 -10 0 -5 7 -10 16 -10 8 0 12 -5 9 -10 -10 -16 14 -40
32 -33 13 5 13 7 -1 15 -15 8 -14 12 6 33 18 18 30 22 62 19 32 -4 38 -2 26 6
-12 10 -12 11 -1 8 21 -6 26 -28 7 -28 -9 0 -16 -6 -16 -14 0 -8 -2 -20 -3
-28 -2 -7 -2 -10 0 -5 3 4 10 4 15 1 7 -5 8 -2 3 6 -6 10 -4 12 8 7 9 -3 16
-3 16 1 -4 23 3 39 15 39 12 0 13 -5 4 -20 -12 -23 8 -42 27 -27 7 6 16 5 23
-2 9 -9 12 -8 12 4 0 12 6 15 22 10 14 -3 19 -1 14 6 -5 8 -2 10 8 6 9 -3 16
-2 16 4 0 12 40 23 41 11 1 -5 2 -13 3 -18 0 -5 5 -13 10 -18 5 -4 6 -3 3 3
-4 7 3 14 15 17 30 8 37 -2 14 -19 -11 -8 -15 -14 -10 -14 6 0 16 6 22 12 10
10 15 10 22 -2 5 -8 12 -11 16 -7 4 4 14 1 22 -6 13 -10 14 -9 7 3 -6 12 -5
13 6 3 7 -7 26 -13 41 -13 15 0 28 -4 28 -8 0 -22 -65 -96 -108 -123 -73 -46
-110 -52 -273 -45 -172 8 -233 -2 -437 -70 -278 -94 -459 -176 -547 -249 -51
-42 -21 -38 75 10 127 64 258 109 274 95 10 -7 17 -6 26 6 18 21 70 47 70 35
0 -22 43 -23 72 -1 16 12 39 23 51 26 12 2 34 13 49 24 36 27 63 27 48 1 -9
-18 -7 -19 27 -14 21 3 55 14 75 24 50 26 62 24 42 -6 -25 -39 -9 -42 32 -6
53 47 126 72 89 31 -25 -27 -13 -36 19 -14 28 18 48 12 28 -8 -14 -14 -16 -48
-3 -48 5 0 14 7 21 15 11 14 14 13 25 -7 10 -19 8 -30 -7 -61 -28 -56 -5 -45
49 24 26 33 49 56 51 50 2 -6 -17 -45 -42 -86 -25 -42 -46 -78 -46 -81 0 -3 7
-13 16 -21 15 -15 18 -14 39 13 12 16 32 40 44 54 l22 25 -7 -25 c-19 -69
-153 -299 -213 -364 -10 -12 -28 -40 -40 -63 -12 -24 -32 -50 -46 -59 -13 -8
-34 -37 -46 -62 -13 -26 -43 -78 -68 -116 -69 -104 -75 -117 -64 -135 15 -24
-2 -59 -32 -67 -14 -3 -37 -24 -53 -47 -43 -65 -134 -132 -212 -157 -61 -20
-91 -22 -267 -23 -191 0 -336 14 -349 34 -3 5 -20 9 -39 9 -18 0 -61 9 -96 19
-35 11 -100 29 -144 41 -49 13 -108 38 -153 65 -79 49 -92 53 -92 29 0 -18
-28 -12 -75 17 -38 23 -124 115 -148 159 -27 50 -32 28 -6 -27 13 -26 25 -52
28 -58 6 -13 -45 21 -101 68 -26 21 -51 36 -56 33 -6 -3 -22 -2 -36 4 -19 7
-26 6 -26 -3 1 -18 23 -43 45 -51 11 -4 31 -15 44 -26 19 -17 21 -23 11 -35
-9 -10 -9 -15 -1 -15 6 0 11 5 11 10 0 22 30 8 45 -20 14 -27 14 -29 -2 -23
-16 6 -16 4 1 -15 19 -22 53 -31 41 -12 -4 6 -11 8 -16 5 -5 -3 -6 1 -2 10 5
13 7 14 14 3 7 -10 9 -10 9 2 0 10 3 11 8 4 4 -6 14 -14 22 -17 11 -4 10 -6
-4 -6 -14 -1 -16 -4 -7 -14 8 -10 7 -17 -1 -25 -7 -7 -8 -12 -2 -12 5 0 16 12
25 26 l16 26 25 -25 c14 -14 28 -24 31 -21 2 2 9 -1 15 -9 8 -10 6 -16 -11
-27 -20 -12 -21 -12 -8 3 17 21 3 22 -23 2 -20 -15 -20 -15 0 -15 14 0 16 -2
6 -9 -11 -7 -10 -9 3 -14 9 -4 13 -3 10 2 -3 5 0 13 5 16 12 7 52 -23 46 -34
-6 -9 17 -35 33 -39 12 -3 12 0 1 12 -7 9 -9 16 -4 16 5 0 1 6 -8 13 -17 14
-12 30 11 35 8 2 11 -3 8 -12 -6 -16 19 -43 30 -32 3 3 1 6 -6 6 -7 0 -9 5 -5
12 5 7 3 8 -6 3 -9 -6 -11 -4 -5 4 5 9 13 7 29 -8 12 -12 29 -21 36 -21 9 0 5
-6 -8 -16 -22 -15 -22 -17 -5 -31 14 -11 15 -14 2 -10 -9 3 -16 -1 -16 -8 0
-10 6 -11 24 -2 13 5 23 14 23 19 0 5 -4 7 -9 4 -5 -3 -12 1 -15 10 -5 13 -2
15 14 11 11 -3 20 0 20 6 0 7 5 5 10 -3 5 -8 17 -15 27 -16 35 -1 92 -32 89
-48 -1 -9 -6 -15 -12 -14 -5 2 -8 7 -6 12 2 5 -4 4 -12 -3 -8 -7 -12 -19 -9
-27 3 -8 -1 -14 -8 -14 -11 0 -11 -3 1 -10 16 -11 37 -14 27 -4 -3 3 3 15 13
27 11 11 17 24 14 29 -8 13 20 9 41 -6 11 -7 25 -15 30 -16 19 -3 18 -10 -1
-11 -11 0 -14 -3 -6 -6 7 -3 19 0 26 6 11 9 18 7 32 -6 10 -10 19 -16 21 -14
8 8 72 -10 83 -24 6 -7 19 -11 27 -8 11 5 14 3 9 -6 -6 -10 -4 -10 12 0 15 10
24 10 34 1 8 -7 33 -9 62 -6 30 4 46 2 42 -4 -7 -11 60 -10 71 1 6 6 -11 11
-29 8 -4 0 -5 6 -2 14 5 12 10 12 32 -3 14 -9 27 -16 29 -14 2 1 17 2 34 2 20
0 28 -4 23 -11 -4 -7 -1 -10 7 -7 8 3 13 11 12 17 -4 15 7 14 53 -5 27 -11 35
-12 27 -3 -22 23 -14 29 36 29 28 0 53 5 57 11 4 7 22 9 45 6 22 -3 37 -2 35
2 -3 4 5 8 17 8 21 2 22 1 3 -13 -11 -8 -24 -14 -29 -14 -4 0 -1 -7 7 -16 9
-8 16 -20 16 -25 0 -10 -76 -48 -97 -49 -7 0 -27 -10 -46 -23 -19 -13 -71 -33
-115 -45 -73 -20 -84 -21 -104 -8 -25 16 -148 34 -135 20 5 -5 27 -16 50 -24
23 -9 42 -20 42 -25 0 -18 -167 -67 -245 -72 -176 -13 -136 -80 49 -82 83 -1
100 5 74 24 -16 12 -14 14 19 20 20 4 43 5 50 2 7 -3 3 -6 -9 -6 -12 -1 -25
-5 -28 -11 -9 -15 43 -12 68 4 12 8 51 22 87 31 36 8 74 20 85 25 11 6 45 18
75 29 l55 18 21 -37 c19 -34 20 -43 10 -101 -19 -111 -122 -268 -278 -422 -49
-49 -70 -56 -102 -32 -11 8 -29 15 -41 15 -12 0 -26 5 -33 12 -7 7 -12 9 -12
5 0 -4 23 -21 50 -38 28 -17 50 -34 50 -39 0 -11 -80 -80 -92 -80 -5 0 -7 -8
-4 -18 5 -15 -9 -27 -66 -60 -147 -84 -230 -105 -269 -71 -28 24 -31 24 -23
-5 5 -20 1 -25 -28 -34 -54 -17 -188 -41 -268 -48 -68 -6 -79 -4 -122 19 -26
14 -59 35 -74 46 -31 24 -52 28 -34 6 7 -8 20 -15 29 -15 13 -1 13 -3 -3 -15
-11 -8 -16 -18 -11 -22 4 -5 10 -2 12 5 3 6 9 12 14 12 15 0 49 -39 39 -45 -5
-3 -59 -2 -120 1 -89 6 -113 11 -123 24 -7 10 -43 34 -80 55 -37 20 -69 41
-73 46 -3 5 -13 9 -22 9 -10 0 -48 21 -85 46 -38 25 -72 43 -75 39 -10 -10 40
-47 135 -102 45 -26 83 -51 83 -55 0 -4 -30 -4 -67 -1 -49 5 -64 3 -59 -5 10
-17 -19 -15 -36 2 -8 7 -43 18 -78 24 -39 7 -107 33 -174 65 -61 30 -127 57
-146 61 -19 3 -60 25 -89 47 -30 23 -69 46 -87 50 -17 5 -47 20 -65 34 -75 54
-109 75 -124 75 -9 0 -13 5 -10 10 3 6 -2 10 -12 10 -17 0 -110 69 -250 186
-174 145 -402 398 -481 534 -39 67 -71 109 -72 93 0 -6 5 -15 10 -18 6 -3 10
-17 10 -30 0 -18 -4 -23 -15 -19 -8 4 -15 12 -15 20 0 8 -4 14 -8 14 -14 0
-10 -29 5 -34 7 -3 13 -11 13 -17 0 -8 -4 -8 -13 -1 -10 8 -13 5 -14 -16 -1
-15 1 -21 4 -14 2 6 10 12 15 12 6 0 8 -3 5 -7 -4 -3 1 -11 10 -18 11 -8 13
-14 5 -19 -7 -4 -12 -2 -12 4 0 6 -5 8 -11 4 -8 -5 -6 -10 5 -16 9 -5 13 -14
10 -20 -4 -7 -2 -8 5 -4 6 4 8 12 5 18 -4 5 5 2 20 -7 15 -10 24 -20 21 -23
-3 -3 4 -11 15 -19 11 -8 17 -20 13 -29 -4 -10 -9 -12 -18 -4 -6 5 -15 7 -18
4 -4 -4 -5 2 -3 13 3 11 0 26 -5 34 -7 11 -9 8 -9 -9 0 -16 -4 -21 -12 -16 -7
4 -5 -2 6 -14 10 -12 21 -21 25 -20 19 2 24 -3 11 -12 -20 -12 2 -35 33 -35
12 0 22 -4 22 -10 0 -5 -6 -9 -12 -9 -7 1 -10 -2 -7 -8 3 -5 14 -6 25 -3 13 4
21 1 26 -11 4 -11 2 -19 -6 -22 -9 -3 -8 -9 5 -23 9 -10 21 -19 26 -19 5 0 2
7 -6 16 -9 8 -13 20 -10 25 7 12 79 -59 79 -78 0 -7 9 -19 20 -27 11 -9 15
-16 9 -16 -15 0 -60 40 -56 52 1 5 -2 6 -8 3 -7 -5 -3 -18 13 -38 14 -18 27
-30 29 -27 3 3 13 -1 22 -9 9 -8 16 -10 14 -4 -2 6 1 11 6 12 5 1 10 -10 11
-23 0 -14 10 -33 21 -43 12 -10 26 -28 33 -41 7 -12 16 -20 20 -17 5 2 8 -3 7
-13 -1 -11 5 -16 17 -14 15 2 21 -7 19 -29 -1 -3 10 -4 23 -1 31 6 32 20 3 32
-23 9 -23 9 -2 9 13 1 29 -10 38 -24 9 -14 21 -23 25 -20 5 3 12 -2 15 -11 3
-8 10 -13 15 -10 5 3 11 0 14 -8 7 -17 -18 -15 -35 2 -15 15 -35 16 -40 2 -7
-21 -140 64 -225 143 -27 25 -35 28 -48 17 -13 -11 -24 -7 -69 26 -101 73
-201 158 -302 256 -99 96 -145 126 -110 73 52 -81 49 -72 26 -85 -18 -10 -21
-9 -17 2 2 7 10 12 16 10 7 -1 10 2 6 8 -5 8 -11 7 -21 -1 -11 -9 -17 -9 -29
1 -15 12 -11 35 5 25 5 -3 12 0 16 6 4 8 3 9 -4 5 -7 -4 -22 10 -38 34 -15 22
-30 40 -34 40 -16 0 -3 -33 19 -51 20 -17 13 -38 -9 -24 -5 3 -10 1 -10 -6 0
-7 9 -9 23 -6 20 6 21 5 4 -8 -12 -8 -14 -15 -8 -20 6 -3 11 -1 11 6 0 8 4 8
15 -1 12 -10 13 -15 4 -20 -6 -4 -8 -13 -4 -19 5 -9 10 -9 20 -1 10 8 14 7 18
-2 4 -10 6 -10 6 0 1 6 13 12 29 11 26 0 26 -1 4 -9 -12 -5 -25 -16 -28 -25
-3 -8 -11 -12 -17 -8 -6 4 -7 1 -2 -7 6 -10 11 -9 21 4 9 13 13 14 16 4 3 -7
-2 -19 -11 -26 -14 -11 -13 -11 7 -2 25 12 27 21 10 38 -17 17 4 15 30 -4 12
-8 22 -22 22 -30 0 -8 5 -12 10 -9 6 3 13 -1 16 -10 7 -16 -24 -47 -38 -39 -5
3 -8 0 -8 -5 0 -6 9 -11 20 -11 11 0 20 5 20 11 0 5 5 7 10 4 6 -4 7 -11 4
-17 -5 -7 -2 -8 6 -3 10 6 12 4 7 -8 -4 -11 -2 -14 8 -11 14 6 9 34 -6 34 -5
0 -9 7 -9 16 0 27 29 -10 36 -45 4 -17 11 -31 16 -31 6 0 8 9 5 20 -4 15 9 9
54 -26 32 -25 59 -47 59 -50 0 -3 -5 -2 -12 2 -7 4 -8 3 -4 -4 4 -6 14 -8 23
-5 13 5 15 2 10 -11 -5 -12 -2 -16 10 -14 9 2 18 -2 20 -9 3 -8 -3 -11 -17 -8
-11 2 -18 0 -15 -5 3 -5 17 -7 30 -4 14 2 25 0 25 -6 0 -5 8 -10 18 -11 10 0
12 -3 4 -6 -19 -7 -4 -23 16 -16 9 3 14 3 11 -1 -4 -4 -17 -9 -29 -11 -38 -7
-42 -27 -12 -56 15 -14 29 -22 30 -18 7 18 21 8 17 -11 -2 -12 2 -20 10 -20 7
0 16 -6 19 -12 4 -7 4 -3 2 9 -2 12 2 27 10 34 19 16 18 29 -3 29 -15 0 -16
-2 -3 -10 14 -9 10 -11 -17 -10 -5 1 -7 9 -5 20 4 23 -16 36 -31 21 -9 -9 -8
-11 6 -6 19 8 23 -5 6 -22 -9 -9 -16 -9 -30 0 -17 10 -17 12 3 29 26 22 42 23
62 3 8 -8 19 -15 25 -15 6 0 11 -4 11 -9 0 -5 8 -12 18 -16 9 -3 33 -19 52
-36 32 -28 33 -29 5 -12 -16 10 -36 23 -43 30 -14 14 -32 9 -32 -8 0 -6 5 -7
12 -3 8 5 9 2 5 -10 -4 -10 -3 -15 3 -11 9 6 14 -8 11 -28 -1 -5 3 -6 8 -2 6
3 7 13 4 23 -6 16 -5 15 21 -1 15 -10 34 -16 41 -13 7 2 19 -2 26 -10 10 -12
9 -13 -6 -8 -14 6 -16 4 -10 -7 7 -12 6 -12 -7 -1 -14 11 -16 10 -11 -8 3 -11
10 -20 17 -19 33 4 48 -2 42 -17 -4 -11 -2 -15 8 -11 7 3 23 -1 35 -10 12 -8
28 -12 36 -9 8 3 12 0 9 -7 -2 -7 8 -20 23 -29 60 -37 58 -35 42 -54 -8 -10
-9 -15 -3 -11 7 4 15 0 18 -9 3 -8 11 -12 17 -9 6 5 4 11 -7 19 -13 10 -14 15
-4 21 9 6 11 4 6 -4 -5 -8 -3 -12 5 -10 26 3 39 -1 39 -12 0 -5 -4 -7 -10 -4
-5 3 -10 2 -10 -3 0 -16 13 -22 25 -12 7 6 24 1 51 -15 25 -16 33 -24 21 -25
-10 0 -15 -5 -12 -10 4 -6 12 -7 23 -1 22 12 62 -7 62 -31 0 -11 7 -18 18 -18
14 0 15 2 2 10 -8 5 -10 10 -4 10 6 0 19 -8 28 -19 9 -10 31 -21 47 -25 19 -4
28 -10 23 -17 -4 -7 -1 -10 7 -7 15 5 22 47 8 49 -5 1 -14 2 -19 3 -6 0 -14 6
-18 12 -4 5 -25 21 -47 34 -22 13 -43 28 -46 33 -3 5 -9 8 -13 7 -3 0 -14 4
-24 9 -16 10 -16 10 1 11 9 0 17 -4 17 -9 0 -6 9 -8 20 -6 12 2 27 -6 39 -21
11 -14 31 -26 46 -28 14 -2 31 -11 39 -21 7 -10 18 -15 24 -11 7 4 12 2 12 -4
0 -6 4 -9 9 -5 14 8 61 -16 54 -28 -3 -6 -1 -7 6 -3 6 4 19 2 27 -5 23 -19 26
-4 4 24 -23 28 -25 37 -9 37 5 0 7 -5 3 -12 -5 -8 -2 -9 9 -5 10 3 17 2 17 -4
0 -6 5 -7 12 -3 8 5 9 2 5 -9 -3 -9 -1 -19 5 -23 6 -4 8 -3 4 4 -3 6 -2 13 4
17 5 3 10 1 10 -5 0 -6 5 -8 10 -5 6 3 10 1 10 -4 0 -6 3 -10 8 -9 13 3 62
-14 58 -21 -2 -3 10 -7 26 -8 37 -3 80 -29 76 -46 -2 -7 1 -13 6 -14 5 -1 13
-7 18 -15 8 -10 9 -10 5 2 -2 8 -10 14 -16 12 -7 -1 -10 2 -6 8 7 12 32 -3 48
-28 7 -10 12 -10 23 -1 11 9 16 7 23 -12 7 -21 5 -25 -18 -30 l-26 -7 28 -1
c19 -1 26 -5 21 -13 -4 -7 -3 -8 4 -4 7 4 12 13 12 21 0 8 7 11 20 8 11 -3 20
0 20 6 0 6 7 11 16 11 10 0 14 -6 11 -15 -4 -8 -2 -17 4 -21 6 -3 8 -13 4 -23
-5 -12 -4 -13 6 -4 10 10 9 15 -1 28 -10 13 -9 15 6 15 16 0 17 2 4 11 -13 9
-13 10 0 6 8 -2 14 -11 14 -20 -1 -9 4 -13 12 -10 8 3 14 0 14 -7 0 -6 5 -8
10 -5 6 3 10 -4 11 -17 0 -17 2 -19 7 -7 7 16 14 16 79 4 18 -3 35 -5 37 -3 3
2 11 -6 19 -16 11 -15 16 -16 22 -6 6 9 4 11 -5 5 -9 -6 -11 -4 -5 4 9 16 25
2 29 -25 2 -16 12 -19 54 -20 28 -1 59 -4 69 -8 16 -5 16 -4 -1 9 -10 8 -23
12 -27 9 -5 -3 -9 -1 -9 4 0 6 -9 8 -20 5 -12 -3 -20 0 -20 7 0 6 10 10 23 9
12 -1 30 1 39 5 23 10 54 3 50 -12 -1 -8 13 -12 43 -12 52 0 61 17 13 23 -18
2 10 4 62 5 114 2 146 -4 129 -25 -9 -11 -9 -17 1 -26 10 -9 11 -9 6 0 -4 7
-1 21 6 33 13 21 51 25 113 11 17 -3 62 -3 100 1 69 8 121 -4 109 -24 -3 -4 6
-3 21 4 18 8 22 14 13 20 -10 6 -10 8 2 9 25 3 74 9 87 11 9 1 10 5 2 14 -11
14 6 14 28 1 6 -4 15 -2 19 4 5 8 3 9 -6 4 -9 -5 -11 -4 -6 3 9 15 36 16 36 1
0 -8 4 -9 13 0 8 6 16 8 19 6 11 -12 68 -23 68 -14 0 5 -10 9 -22 9 -26 0 -19
9 11 15 44 8 79 38 85 71 9 47 47 71 52 33 1 -5 2 -13 3 -19 0 -5 9 -10 19
-10 15 0 15 -2 2 -11 -12 -8 -12 -10 -1 -7 17 5 24 35 10 44 -5 3 -4 14 3 27
6 12 11 24 10 27 -1 3 4 5 11 6 33 3 38 5 32 14 -3 5 -1 10 5 10 7 0 9 -8 5
-21 -5 -14 -3 -19 3 -15 11 6 48 -91 39 -101 -11 -10 -27 8 -27 31 0 12 -9 32
-20 44 -21 23 -36 30 -25 12 3 -5 1 -10 -4 -10 -6 0 -11 -4 -11 -10 0 -5 6 -7
14 -4 18 7 11 -27 -44 -240 -22 -87 -38 -161 -36 -164 3 -3 8 1 10 9 30 85 59
155 69 167 6 8 10 25 9 37 -2 12 4 28 12 35 9 7 16 20 16 29 0 30 14 42 33 28
11 -8 20 -38 27 -86 6 -41 17 -83 26 -92 19 -22 71 -342 57 -358 -2 -3 -10 4
-18 15 -10 12 -14 32 -11 58 4 34 0 43 -26 68 -17 16 -33 26 -37 23 -3 -3 0
-9 6 -13 20 -13 33 -60 24 -86 -11 -28 -9 -276 3 -294 4 -7 15 -10 25 -7 14 4
17 -4 18 -57 1 -36 -5 -78 -14 -101 -10 -23 -14 -55 -11 -82 4 -32 0 -52 -14
-76 -10 -17 -23 -50 -28 -73 -4 -22 -20 -81 -35 -131 -15 -49 -29 -101 -32
-115 -5 -25 -5 -25 21 5 32 38 33 20 6 -60 -21 -61 -13 -100 10 -46 18 43 30
38 31 -11 0 -24 4 -61 8 -83 l7 -40 14 58 c8 35 18 57 27 57 10 0 11 5 3 19
-7 14 -6 27 5 47 10 20 16 24 19 13 14 -40 49 -169 56 -207 8 -49 30 -81 30
-44 0 13 6 22 15 22 8 0 15 -4 15 -10 0 -5 11 -12 25 -16 18 -4 33 -23 55 -69
35 -72 66 -96 55 -42 -9 39 -82 220 -123 302 -17 33 -35 87 -40 120 -15 88
-26 404 -14 418 16 20 23 131 13 198 -6 35 -11 143 -12 239 -2 147 -6 181 -21
210 -10 19 -21 50 -24 70 -3 19 -19 82 -35 140 l-30 105 64 97 c77 116 139
233 178 337 l30 76 -6 -60 c-4 -33 -22 -161 -40 -285 -49 -323 -48 -310 -35
-280 46 103 240 788 301 1060 18 80 34 147 36 149 2 3 16 -8 31 -22 31 -30 52
-35 52 -12 0 8 -8 15 -18 15 -10 0 -29 11 -42 25 -20 21 -22 28 -12 50 6 14
15 25 20 25 5 0 23 -18 41 -40 36 -45 76 -75 89 -66 5 3 -15 31 -45 62 -77 84
-66 102 14 21 36 -37 68 -65 71 -63 10 10 -19 69 -62 124 -60 78 -62 103 -12
137 36 24 41 25 52 11 14 -20 59 -296 75 -461 19 -201 -3 -408 -59 -535 -44
-99 -45 -98 -80 66 -32 152 -66 331 -78 417 -3 27 -10 45 -13 40 -4 -4 -18
-87 -30 -183 -31 -241 -122 -782 -148 -875 -3 -13 -2 -16 4 -10 6 6 26 58 46
117 79 233 141 320 235 333 146 21 263 116 374 304 l27 44 -25 20 c-31 24
-108 182 -129 267 -22 85 -32 210 -17 210 6 0 33 -19 60 -43 94 -84 108 -89
322 -122 58 -9 114 -19 125 -22 19 -5 19 -4 -1 11 -50 36 -99 218 -110 409 -4
59 -5 107 -2 107 3 0 30 -32 59 -70 30 -39 55 -67 57 -61 5 14 -20 57 -67 120
-39 52 -49 80 -35 94 24 23 160 -249 208 -416 l23 -80 12 84 c18 121 17 120
58 74 l35 -40 -28 50 c-15 28 -31 55 -35 60 -3 6 -3 37 2 70 4 33 11 112 14
175 4 63 9 122 11 130 3 9 17 -7 36 -40 57 -101 213 -237 312 -273 14 -6 17
-4 12 8 -8 23 50 82 183 183 63 48 121 97 129 110 l14 22 -83 0 -83 0 31 32
c75 79 75 112 9 315 -31 92 -62 201 -71 241 -16 80 -20 207 -6 198 5 -4 7 3 4
14 -8 31 9 24 52 -20 21 -22 43 -40 47 -40 4 0 -4 26 -18 58 -43 95 -44 100
-30 111 11 9 20 -9 45 -87 56 -178 240 -512 281 -512 16 0 11 73 -11 167 -29
124 -56 312 -70 478 -11 127 -10 145 4 159 8 9 18 28 21 43 6 27 -5 106 -20
148 -13 35 9 7 48 -63 53 -94 47 -50 -8 59 -25 50 -43 96 -41 102 2 7 22 -24
45 -68 32 -63 41 -74 42 -53 0 16 -20 59 -46 102 -29 47 -44 83 -42 97 3 20
10 12 43 -46 31 -54 41 -65 43 -48 2 12 -4 34 -13 50 -14 23 -14 25 -1 9 14
-18 16 61 16 923 l0 942 -22 39 c-13 22 -28 38 -34 36 -6 -2 -25 4 -43 15 -17
10 -37 16 -45 13 -8 -3 -28 14 -51 46 -61 84 -98 93 -115 28 -6 -24 -18 -48
-27 -55 -13 -10 -8 -24 36 -107 35 -64 48 -97 40 -102 -8 -4 -10 -32 -7 -83 4
-68 9 -85 52 -159 84 -148 82 -167 -14 -96 -34 25 -72 49 -86 54 -13 5 -24 14
-24 20 0 6 5 8 10 5 21 -13 8 7 -31 50 -72 78 -83 56 -52 -106 9 -49 14 -92
10 -96 -4 -3 -21 7 -39 23 l-31 29 6 -25 c5 -20 -6 -12 -50 35 -35 38 -46 46
-29 22 18 -24 26 -47 24 -65 -3 -24 -7 -20 -45 44 -48 78 -56 109 -22 78 20
-18 -86 135 -138 199 -41 51 -24 6 33 -87 31 -50 57 -98 59 -108 5 -23 31 -71
86 -160 26 -42 55 -93 64 -115 l15 -38 -27 34 -27 35 -6 -25 c-6 -22 -9 -20
-45 34 -36 54 -60 73 -36 29 6 -11 22 -67 35 -125 14 -58 39 -136 55 -172 24
-53 27 -66 14 -61 -9 4 -19 2 -23 -4 -4 -6 -23 17 -44 52 -20 35 -46 74 -57
88 -19 25 -19 25 0 -20 10 -25 33 -76 51 -115 40 -88 51 -115 45 -115 -11 0
-113 164 -157 250 -26 52 -48 88 -49 80 -1 -22 -38 151 -39 182 0 17 -17 45
-48 80 -27 29 -65 78 -84 108 -43 68 -61 83 -123 111 -43 19 -60 21 -141 15
-51 -3 -95 -2 -98 3 -3 4 -17 6 -31 4 -22 -5 -28 1 -55 62 -16 37 -30 69 -30
72 0 2 17 -9 37 -26 76 -63 68 4 -16 134 -91 139 -88 169 4 52 76 -97 106
-126 66 -64 -41 62 -113 198 -108 203 3 3 33 -44 68 -105 34 -61 64 -109 66
-107 2 1 -24 62 -56 134 -33 73 -58 132 -56 132 2 0 15 -21 31 -47 36 -64 165
-263 170 -263 2 0 1 7 -2 15 -4 10 0 15 14 15 35 0 35 19 -1 60 -21 25 -36 55
-39 78 -3 20 -31 92 -62 160 -47 102 -54 127 -45 144 10 18 17 10 73 -83 75
-128 126 -202 133 -195 3 2 -34 81 -81 174 -76 151 -84 171 -71 188 7 10 16
16 20 13 3 -4 47 -98 97 -210 87 -197 164 -327 197 -336 21 -5 60 -74 81 -142
16 -50 21 -56 65 -73 26 -10 50 -17 52 -15 2 3 -12 33 -31 68 -42 79 -108 254
-110 294 -1 17 -7 46 -13 65 -37 115 -18 122 27 10 18 -44 36 -83 41 -86 14
-8 11 29 -7 77 -9 24 -22 64 -30 89 l-13 45 39 -45 c22 -25 68 -84 102 -132
34 -49 66 -88 70 -88 11 0 5 10 -98 182 -234 388 -711 1240 -686 1224 20 -12
206 -249 268 -342 34 -50 130 -226 213 -392 84 -166 161 -312 172 -324 19 -22
19 -22 -1 19 -29 60 -24 66 10 11 51 -82 68 -73 24 13 -14 28 -23 58 -20 66 4
9 -9 36 -29 63 -43 59 -45 80 -4 46 45 -38 53 -23 18 33 -36 59 -154 304 -202
421 -20 47 -43 102 -51 123 -9 20 -15 37 -13 37 2 0 25 -36 51 -80 26 -44 50
-80 52 -80 3 0 2 5 -1 10 -11 17 5 11 80 -30 40 -22 81 -40 92 -40 20 0 81
-78 140 -180 38 -64 41 -61 13 11 -12 28 -19 54 -17 56 10 9 50 -72 58 -115 8
-40 78 -177 86 -168 2 2 -8 27 -21 57 -14 30 -38 106 -54 170 -21 81 -39 131
-61 162 -53 78 -65 73 -46 -18 7 -33 12 -61 11 -62 -1 -1 -31 55 -66 125 -120
242 -242 552 -256 654 -5 41 -5 42 11 23 9 -11 32 -51 51 -88 20 -39 40 -67
47 -64 24 8 7 88 -52 247 -60 160 -69 190 -53 190 16 0 49 -45 106 -140 82
-139 241 -458 233 -466 -4 -5 -34 19 -67 51 -66 65 -83 65 -21 0 50 -52 83
-146 46 -131 -26 9 24 -50 52 -63 19 -9 39 -8 83 1 56 11 60 11 99 -15 23 -15
41 -23 41 -19 0 40 -98 253 -100 217 -1 -32 -45 47 -81 145 -16 47 -40 101
-51 120 -25 42 -78 220 -78 261 0 31 11 37 27 17 22 -28 86 -151 76 -145 -7 4
-14 4 -17 -1 -7 -11 121 -148 130 -139 13 13 -45 136 -100 210 -46 63 -60 93
-95 207 -48 156 -59 210 -42 210 14 0 -19 63 -55 105 -13 15 -38 50 -55 76
-17 27 -33 49 -35 49 -2 0 12 -31 31 -69 38 -76 43 -99 20 -107 -8 -4 -15 -13
-15 -22 0 -21 -67 44 -128 123 -64 84 -70 88 -32 22z m-1105 -696 c8 -16 12
-31 9 -33 -2 -3 27 -57 65 -120 39 -64 77 -133 86 -155 l15 -38 -20 25 c-11
14 -20 28 -20 33 0 17 -19 5 -22 -15 -3 -20 -9 -14 -42 35 -37 55 -60 72 -36
28 6 -12 20 -63 31 -114 11 -51 35 -126 53 -169 23 -53 29 -75 19 -71 -8 3
-18 1 -22 -6 -5 -7 -28 20 -60 74 -29 47 -55 84 -57 82 -2 -2 12 -39 32 -83
71 -155 83 -185 73 -179 -19 12 -107 152 -153 243 -47 93 -70 124 -41 55 9
-21 31 -90 49 -153 19 -63 37 -124 41 -135 4 -11 -4 -2 -19 20 -29 45 -34 29
-11 -35 23 -65 19 -66 -37 -4 -70 76 -102 89 -164 68 -25 -8 -47 -14 -49 -12
-6 7 250 696 258 691 4 -2 14 -17 22 -32z m666 -771 l147 -315 -26 -7 c-14 -4
-27 -6 -28 -5 -15 17 -268 569 -290 632 -15 43 -16 44 32 -20 14 -19 15 -19 9
7 -2 14 -8 34 -11 45 -15 49 32 -45 167 -337z m-2811 -298 c0 -12 9 -40 20
-61 32 -64 60 -143 66 -192 5 -38 3 -47 -11 -53 -23 -8 -35 1 -35 27 0 12 -6
33 -13 47 -12 24 -25 63 -62 187 -8 28 -15 66 -15 83 l0 32 25 -23 c13 -13 25
-34 25 -47z m3016 -87 c9 -22 -11 -66 -78 -177 -32 -53 -58 -100 -58 -105 0
-5 -16 -36 -36 -69 -37 -62 -114 -285 -114 -332 0 -16 -9 -68 -20 -118 -30
-138 -23 -183 19 -114 22 36 31 30 31 -22 0 -61 -42 -125 -92 -140 -22 -6 -61
-30 -87 -53 -56 -50 -174 -118 -198 -113 -14 2 -11 10 16 41 19 21 31 40 27
44 -7 8 -46 -26 -46 -41 -1 -21 -83 -65 -112 -59 l-28 5 18 31 c9 18 32 48 49
67 31 33 42 60 26 60 -5 0 -21 -21 -38 -45 -27 -41 -42 -51 -69 -46 -5 1 -6
-5 -3 -14 4 -10 1 -15 -11 -15 -10 0 -33 -11 -52 -25 -39 -29 -50 -31 -50 -9
0 12 -7 10 -31 -10 -30 -26 -49 -33 -49 -18 0 4 26 36 58 72 71 82 156 199
148 207 -8 9 -34 -16 -68 -65 -49 -71 -201 -222 -224 -222 -11 0 -25 -5 -31
-11 -16 -16 -33 -2 -33 27 0 21 -3 23 -18 15 -19 -10 -74 8 -86 28 -4 6 -16
11 -27 11 -28 0 -23 19 13 57 42 43 30 53 -16 13 -55 -49 -61 -31 -11 33 25
31 44 57 42 57 -2 0 -26 -20 -53 -45 -27 -24 -52 -45 -56 -45 -17 0 -6 23 27
57 34 36 47 61 23 47 -7 -4 -30 -21 -50 -37 -33 -26 -58 -30 -58 -8 0 4 14 23
31 42 51 56 82 99 76 105 -3 4 -33 -15 -67 -41 -34 -26 -64 -45 -67 -42 -3 3
7 22 22 41 29 38 18 49 -19 21 -23 -17 -36 -19 -36 -5 0 5 33 28 73 52 39 23
105 71 145 106 41 35 126 102 188 149 63 47 113 88 110 90 -3 3 -21 -5 -41
-17 -54 -33 -53 -18 2 26 26 21 91 77 143 124 186 168 314 257 453 317 45 20
87 39 92 42 6 4 42 19 80 33 39 15 88 33 110 41 54 20 104 21 111 2z m147 -92
c105 -190 164 -308 160 -319 -2 -7 10 -63 26 -125 17 -62 29 -115 26 -117 -11
-12 -216 426 -263 565 -18 52 -21 93 -6 93 1 0 27 -44 57 -97z m-260 -695 c26
-48 47 -89 47 -92 0 -11 -123 -85 -132 -80 -11 7 -6 66 13 153 8 37 14 49 20
40 12 -19 11 -2 -1 21 -8 15 -4 59 5 48 1 -2 23 -42 48 -90z m706 -771 c15
-56 32 -111 36 -122 4 -11 -3 -5 -14 14 -39 60 -37 26 7 -99 3 -8 -14 9 -37
38 l-42 53 -4 142 c-4 132 -4 140 10 109 8 -18 28 -78 44 -135z m151 -305 c0
-17 -54 -221 -81 -304 -17 -52 -33 -48 -26 5 3 23 9 66 13 95 6 48 5 53 -11
50 -9 -2 -22 4 -28 13 -8 14 1 30 53 88 65 74 80 83 80 53z m-3718 -276 c-2
-24 -2 -52 1 -62 3 -17 5 -16 15 6 10 23 11 22 11 -17 1 -59 18 -54 26 8 8 59
22 54 27 -11 2 -27 8 -44 14 -43 7 1 14 -19 18 -46 4 -27 21 -78 39 -112 19
-35 39 -80 47 -99 9 -24 14 -30 17 -18 2 9 0 25 -6 35 -12 23 -61 197 -61 215
1 7 16 -33 35 -89 42 -128 122 -296 136 -287 6 3 17 -2 24 -12 20 -27 18 -36
-6 -29 -20 7 -21 4 -15 -20 l7 -27 -40 31 c-29 24 -60 36 -116 46 -42 8 -85
19 -95 25 -10 5 -28 10 -40 10 -12 0 -46 12 -76 26 l-54 25 0 128 c0 129 16
221 56 321 22 54 40 52 36 -4z"/>
<path d="M4148 9269 c-2 -7 0 -41 5 -77 9 -72 4 -97 -18 -88 -28 10 -15 -11
30 -53 25 -23 50 -39 55 -36 6 4 7 30 4 63 l-7 57 38 -35 38 -35 -24 40 c-19
33 -105 162 -114 173 -2 2 -5 -2 -7 -9z"/>
<path d="M9335 9196 c18 -44 37 -96 40 -115 4 -24 31 -68 80 -130 78 -100 139
-209 133 -239 -3 -12 -18 4 -48 50 -24 37 -45 66 -47 64 -3 -2 8 -28 23 -57
14 -29 50 -117 79 -194 60 -162 149 -342 141 -285 -5 33 -3 32 24 -20 40 -75
37 -52 -5 45 -19 44 -35 89 -35 100 1 17 5 15 32 -14 l31 -35 -7 30 c-11 48
-176 370 -312 609 -147 257 -178 303 -129 191z"/>
<path d="M4290 8870 c0 -6 12 -23 28 -37 15 -14 26 -30 24 -35 -1 -5 14 -30
33 -55 19 -25 35 -50 35 -56 0 -18 -41 26 -86 94 -44 66 -74 100 -74 82 0 -5
5 -14 12 -21 6 -6 9 -15 5 -19 -4 -4 -13 -1 -19 5 -15 15 -38 15 -38 0 0 -6 8
-21 17 -32 10 -12 11 -15 3 -8 -19 16 -30 15 -30 -4 0 -12 -6 -15 -27 -10 -25
6 -26 5 -8 -5 31 -18 75 -62 75 -75 0 -14 49 -48 58 -40 3 3 0 6 -6 6 -20 0
-13 18 8 25 14 4 36 -3 67 -24 26 -17 53 -31 60 -31 8 0 31 -18 51 -40 20 -22
43 -40 51 -39 32 3 39 -2 65 -41 26 -39 46 -45 46 -15 0 8 -24 49 -52 91 -29
42 -64 93 -78 113 -31 47 -68 86 -75 80 -3 -3 4 -15 15 -27 11 -12 20 -27 20
-35 0 -7 13 -31 30 -53 30 -40 38 -64 20 -64 -10 0 -90 102 -90 115 0 5 -6 16
-14 24 -8 9 -26 39 -41 66 -33 60 -34 61 -62 70 -14 4 -23 2 -23 -5z"/>
<path d="M4660 8624 c0 -21 134 -204 170 -233 37 -29 45 -32 62 -22 11 7 21
11 22 9 1 -2 13 -18 25 -35 15 -22 31 -33 46 -33 42 0 36 16 -30 74 -54 47
-65 54 -65 37 0 -44 -26 -24 -134 106 -75 90 -96 111 -96 97z"/>
<path d="M4334 8499 c26 -131 28 -171 11 -210 -10 -21 -15 -48 -12 -61 3 -13
0 -32 -9 -42 -18 -26 -18 -40 1 -32 8 3 15 1 15 -5 0 -34 -37 -146 -75 -224
-42 -88 -95 -235 -110 -305 -4 -19 -22 -64 -40 -100 -66 -134 -91 -457 -46
-610 12 -41 24 -88 25 -105 4 -38 31 -100 61 -139 12 -17 39 -62 59 -101 47
-90 77 -138 100 -164 23 -26 32 -21 16 9 -6 11 -8 30 -5 40 6 19 8 19 39 -5
33 -25 56 -32 56 -17 0 4 -5 13 -12 20 -22 22 5 13 29 -10 50 -47 17 8 -104
176 -137 188 -186 267 -204 327 -18 57 6 310 40 439 5 19 15 61 21 93 7 35 17
57 25 57 7 0 16 12 19 26 14 55 14 16 0 -56 -18 -95 -18 -111 0 -88 16 22 33
98 87 387 23 124 48 243 56 265 7 23 17 92 20 154 3 61 10 112 15 112 14 0
106 -149 168 -275 66 -133 100 -248 127 -434 14 -94 17 -205 19 -577 1 -392 4
-473 18 -538 25 -112 104 -295 140 -325 12 -10 13 -18 5 -32 -12 -24 -8 -99 6
-100 6 0 13 15 16 33 6 38 26 78 38 78 5 0 5 -18 0 -41 -9 -39 -6 -59 10 -59
12 0 62 131 80 210 5 19 18 55 30 80 11 25 21 53 21 63 0 9 26 73 59 141 42
90 64 124 80 129 14 3 21 13 21 30 0 41 39 154 76 221 19 35 34 68 34 75 0 7
11 36 24 64 20 45 41 116 60 209 3 15 -3 63 -13 107 -18 76 -52 140 -106 201
-12 14 -29 47 -38 73 -12 34 -35 67 -81 113 -36 36 -65 69 -63 73 1 4 -28 36
-65 69 -46 42 -73 59 -84 55 -13 -5 -15 -2 -10 13 5 15 -10 33 -69 82 -41 34
-78 62 -83 62 -5 0 -27 16 -50 36 -34 29 -45 34 -57 24 -19 -15 -26 -10 -87
63 -28 34 -63 67 -77 73 -14 6 -49 32 -77 58 -48 42 -74 56 -74 39 0 -4 10
-17 22 -30 12 -13 17 -23 12 -23 -25 0 -50 33 -68 91 -23 69 -54 98 -42 38z"/>
<path d="M3926 6974 c-12 -30 -6 -161 9 -212 30 -101 114 -274 189 -387 70
-107 98 -137 113 -122 3 3 -10 25 -28 49 -33 42 -69 100 -69 112 0 3 8 2 17
-1 13 -5 15 -3 8 13 -4 10 -10 30 -13 44 -2 14 -12 34 -22 45 -27 31 -56 86
-75 140 -34 93 -49 76 -20 -21 20 -66 18 -77 -6 -31 -60 113 -106 306 -71 300
16 -4 15 22 -3 57 -18 34 -21 36 -29 14z"/>
<path d="M5697 6972 c-21 -23 -21 -32 -3 -32 19 0 22 -6 31 -59 6 -37 5 -43
-8 -38 -8 3 -17 3 -20 1 -6 -7 59 -153 78 -174 7 -8 27 -49 45 -90 18 -41 37
-79 42 -85 17 -17 -1 75 -24 123 -11 24 -24 58 -28 75 -5 18 -24 77 -44 132
-20 55 -36 109 -36 120 0 36 -14 48 -33 27z"/>
<path d="M8543 6358 c-22 -24 -77 -94 -123 -156 -64 -87 -83 -121 -84 -150 -2
-20 -11 -65 -20 -98 -25 -86 -18 -112 14 -54 21 38 38 51 110 88 47 24 106 55
132 68 125 65 152 171 66 260 -25 26 -28 35 -19 52 6 10 7 22 4 26 -15 15 -42
3 -80 -36z"/>
<path d="M8900 6379 c-11 -8 -12 -12 -2 -16 41 -16 41 -23 15 -171 -10 -58 4
-100 40 -118 18 -9 46 -29 62 -44 39 -35 123 -83 134 -76 13 8 24 64 23 122 0
64 -54 198 -96 237 -56 53 -147 87 -176 66z"/>
<path d="M5945 6270 c-84 -6 -119 -14 -225 -54 -69 -26 -131 -49 -139 -52 -11
-3 -11 -8 -3 -16 8 -8 50 -2 165 26 84 21 164 36 178 34 22 -3 20 -6 -26 -37
-27 -19 -89 -70 -137 -113 -85 -76 -89 -78 -139 -78 -28 0 -48 -4 -45 -9 4 -5
0 -12 -6 -14 -10 -4 -9 -8 2 -17 13 -9 12 -13 -5 -25 -57 -41 -60 -44 -49 -55
8 -8 20 -6 45 9 34 21 79 28 79 13 0 -4 -7 -18 -16 -30 -14 -21 -14 -22 8 -13
13 5 41 19 63 30 21 12 52 21 68 21 15 0 45 9 67 20 62 31 79 24 40 -18 -26
-28 -15 -28 29 -1 51 31 145 71 133 56 -21 -25 -32 -66 -20 -73 6 -4 8 -3 5 3
-4 6 -1 13 7 16 16 6 26 -1 26 -17 0 -6 -5 -4 -10 4 -8 13 -10 13 -10 -2 0
-10 7 -16 19 -15 19 1 22 12 7 35 -5 9 -1 18 10 27 20 14 38 10 28 -6 -3 -5
-9 -7 -14 -4 -5 3 -12 0 -16 -6 -4 -8 -3 -9 4 -5 7 4 12 1 12 -6 0 -9 3 -9 10
2 8 13 10 12 10 -2 0 -10 -4 -18 -10 -18 -5 0 -10 -5 -10 -11 0 -5 5 -7 11 -4
6 4 17 -1 25 -11 8 -12 13 -13 12 -5 -2 7 3 16 11 19 8 2 11 0 7 -6 -3 -6 -1
-14 5 -18 7 -4 9 -3 5 4 -3 6 -2 13 3 16 5 4 12 2 15 -2 8 -14 -41 -55 -55
-47 -7 5 -10 4 -5 -3 8 -13 -52 -84 -65 -76 -5 3 -6 -2 -3 -9 6 -17 44 -30 44
-15 0 5 4 7 9 3 6 -3 20 8 33 25 12 17 28 28 35 26 7 -3 13 -1 13 3 0 5 7 12
16 15 14 5 15 4 5 -8 -7 -8 -10 -20 -6 -27 5 -7 1 -9 -12 -5 -12 4 -20 2 -21
-6 -2 -31 -9 -49 -18 -48 -5 0 -9 4 -9 9 0 19 -13 21 -26 4 -8 -9 -9 -14 -3
-10 7 4 17 0 23 -7 10 -11 8 -17 -6 -25 -10 -6 -14 -11 -9 -11 5 0 18 7 28 17
14 12 18 13 18 2 0 -7 7 -3 16 10 13 18 18 20 26 10 8 -11 9 -11 5 1 -2 8 -9
14 -15 13 -19 -4 -21 25 -2 30 11 3 21 0 23 -6 2 -6 6 -3 10 6 3 9 3 16 -1 14
-4 -1 -8 3 -9 8 -1 6 6 9 15 7 12 -2 13 0 5 5 -17 12 -10 43 13 56 26 15 55
16 51 3 -2 -6 -14 -11 -25 -10 -17 0 -19 -2 -10 -13 8 -10 8 -20 -3 -41 -8
-15 -16 -29 -19 -32 -3 -3 -12 -18 -21 -35 -9 -16 -21 -29 -27 -27 -7 1 -12
-5 -12 -13 0 -8 -6 -15 -14 -15 -8 0 -18 -5 -22 -12 -5 -7 -2 -9 7 -4 8 4 6 1
-5 -8 -12 -10 -16 -21 -12 -33 7 -17 8 -17 22 1 9 13 14 15 14 6 0 -7 -8 -22
-17 -32 -16 -18 -16 -18 0 -12 9 3 17 10 17 14 0 5 7 16 16 24 12 12 12 16 2
16 -7 1 -3 9 11 20 26 22 41 25 41 9 0 -5 -6 -7 -12 -3 -9 5 -9 2 1 -9 14 -18
26 -23 17 -8 -4 5 -1 11 5 13 9 3 9 9 0 26 -10 19 -9 22 9 22 15 0 20 -7 20
-25 0 -16 6 -25 16 -25 10 0 14 -6 11 -14 -4 -10 0 -12 14 -9 10 3 19 0 19 -6
0 -6 -5 -11 -11 -11 -5 0 -7 -5 -4 -11 5 -6 13 -3 22 10 17 25 9 43 -14 34
-11 -4 -14 -2 -11 8 3 8 10 13 16 12 6 -2 9 3 6 11 -8 20 12 29 27 13 11 -11
18 -11 41 0 32 17 36 23 9 16 -14 -3 -20 2 -23 22 -4 18 -2 25 7 21 7 -2 18 1
24 7 6 6 11 7 11 1 0 -5 5 -2 10 6 7 11 9 6 6 -17 -2 -18 1 -30 6 -27 5 3 8
11 7 17 -3 26 2 37 15 37 13 0 13 -5 -1 -37 -8 -21 -20 -41 -25 -44 -5 -3 -2
-9 7 -12 9 -4 13 -3 10 3 -3 6 3 10 15 10 12 0 18 4 15 11 -4 6 0 9 11 7 15
-2 18 2 16 21 -2 21 0 22 15 10 15 -13 15 -12 4 9 -12 22 -4 29 15 14 5 -4 8
-5 6 -3 -1 2 5 13 15 23 18 20 4 25 -15 6 -9 -9 -12 -9 -12 0 0 7 5 12 10 12
6 0 10 6 10 14 0 7 7 27 15 42 14 27 13 30 -8 46 -12 10 -17 18 -10 18 6 0 15
-4 18 -10 9 -15 22 -12 22 5 0 8 -3 15 -7 15 -4 0 -5 13 -2 30 5 35 -6 86 -16
75 -4 -4 -7 -10 -7 -13 -1 -14 -52 -82 -58 -76 -3 4 3 18 13 33 22 31 39 88
22 77 -6 -3 -14 -2 -17 4 -10 16 -48 8 -66 -14 -17 -21 -41 -14 -32 9 3 11 1
13 -10 9 -12 -4 -14 -1 -10 16 5 19 3 21 -15 16 -17 -6 -24 -1 -37 24 -15 29
-15 31 2 28 35 -6 27 38 -14 76 -21 20 -41 36 -45 36 -14 0 -9 -23 9 -42 23
-26 7 -35 -20 -11 -12 11 -28 18 -35 16 -8 -3 -26 7 -41 21 -27 26 -139 68
-171 64 -8 0 -60 -4 -115 -8z m260 -114 c101 -52 99 -76 -6 -76 -27 0 -75 -9
-107 -19 -76 -25 -267 -71 -298 -71 -13 0 -24 3 -24 8 0 9 148 137 204 175 58
40 127 35 231 -17z"/>
<path d="M7971 5938 c-19 -55 -24 -193 -12 -393 11 -187 23 -265 42 -265 5 0
6 28 2 73 -9 82 -10 375 -3 516 5 100 -8 131 -29 69z"/>
<path d="M5064 5919 c-11 -18 6 -172 23 -198 9 -15 11 -27 5 -33 -10 -10 -5
-39 18 -115 25 -81 35 -51 33 94 -1 120 -3 138 -17 135 -9 -2 -16 4 -16 12 0
8 -5 38 -11 66 -10 49 -21 61 -35 39z"/>
<path d="M8026 5654 c-20 -53 10 -228 49 -278 22 -29 30 -12 29 60 0 64 0 64
12 28 7 -20 18 -42 25 -48 9 -8 11 -7 6 6 -3 9 -9 34 -12 55 -13 79 -16 88
-25 73 -10 -17 -19 18 -17 65 2 24 -2 31 -20 33 -13 2 -23 8 -23 13 0 15 -17
10 -24 -7z"/>
<path d="M4126 4442 c-3 -6 1 -59 9 -119 9 -59 15 -160 14 -223 -2 -109 0
-118 26 -163 31 -54 43 -56 25 -3 -6 20 -9 40 -5 46 6 9 0 73 -31 334 -13 114
-24 150 -38 128z"/>
<path d="M4180 4318 c0 -54 24 -146 93 -367 53 -166 74 -212 84 -183 3 6 8 12
13 12 13 0 30 -60 24 -84 -6 -25 21 -96 37 -96 6 0 9 11 7 25 -2 13 -1 25 2
27 16 8 63 -55 100 -133 23 -49 46 -89 51 -89 14 0 30 40 24 60 -4 11 -14 20
-23 20 -11 0 -30 23 -50 59 -33 61 -40 97 -20 103 17 6 -21 58 -42 58 -10 0
-21 7 -24 16 -9 24 -7 28 9 14 23 -19 31 -2 14 28 -8 15 -25 28 -37 30 -23 3
-29 -7 -13 -24 5 -5 11 -29 15 -54 6 -41 6 -43 -8 -25 -8 12 -29 54 -46 95
-18 41 -47 107 -65 145 -35 74 -94 250 -116 348 -16 67 -29 74 -29 15z"/>
<path d="M2328 4319 c-21 -21 -27 -41 -37 -119 -7 -52 -13 -142 -14 -200 -2
-105 8 -279 17 -287 17 -17 24 28 31 184 12 299 14 336 25 382 14 59 8 70 -22
40z"/>
<path d="M1968 4263 c-8 -16 -20 -50 -27 -78 -17 -79 -105 -662 -115 -765 -11
-107 9 -47 29 85 9 66 21 133 26 149 5 16 9 50 9 75 1 25 10 71 21 101 18 50
34 132 59 305 5 33 14 76 20 95 19 64 7 82 -22 33z"/>
<path d="M2221 4200 c-20 -37 -24 -61 -25 -132 -1 -47 -4 -89 -8 -93 -4 -4 -4
-13 -2 -20 3 -7 -1 -24 -10 -37 -18 -28 -15 -232 3 -267 30 -55 59 5 48 100
-3 26 -1 76 4 110 5 34 14 105 19 158 5 53 12 113 16 134 4 23 2 37 -4 37 -6
0 -12 12 -14 28 -3 26 -4 25 -27 -18z"/>
<path d="M8140 4217 c0 -5 -7 -7 -15 -4 -8 4 -17 2 -20 -4 -4 -5 -11 -7 -16
-4 -5 4 -9 -3 -9 -14 0 -12 3 -20 8 -18 4 1 8 -2 10 -8 1 -5 -2 -10 -8 -10 -5
0 -9 -3 -7 -6 1 -4 -6 -15 -15 -25 -9 -11 -16 -21 -15 -24 0 -3 -4 -14 -10
-24 -10 -19 -12 -19 -28 -3 -9 10 -14 24 -11 32 3 8 0 17 -6 21 -7 4 -8 3 -4
-4 5 -8 0 -12 -14 -12 -13 0 -24 -9 -30 -25 -5 -14 -14 -25 -20 -25 -5 0 -13
-12 -16 -26 -4 -16 -9 -21 -14 -14 -5 8 -10 7 -18 -2 -9 -11 -6 -14 11 -15 12
-1 33 -5 45 -8 13 -3 21 -2 18 3 -3 5 2 9 10 9 12 0 11 -5 -5 -20 -14 -15 -23
-18 -33 -10 -8 6 -21 7 -33 2 -17 -7 -18 -8 -2 -10 32 -3 35 -4 41 -10 4 -3 2
-19 -4 -34 -7 -19 -7 -31 0 -40 8 -9 6 -14 -7 -19 -15 -6 -15 -8 -3 -16 13 -8
13 -10 1 -10 -8 0 -11 -3 -8 -6 4 -4 14 -1 24 7 15 12 16 12 10 -3 -4 -13 -1
-16 15 -13 11 3 23 7 27 11 3 4 -2 4 -13 0 -14 -5 -17 -2 -12 9 3 9 2 13 -4
10 -12 -7 -14 18 -2 29 4 4 8 12 8 17 3 22 5 23 14 9 6 -9 5 -20 -3 -30 -6 -8
-7 -12 -2 -7 4 4 17 0 27 -10 19 -17 26 -5 8 13 -14 14 -22 56 -9 49 5 -4 7
-11 4 -16 -4 -5 2 -6 12 -2 16 6 17 5 3 -11 -13 -17 -13 -18 4 -15 12 3 20 13
21 27 1 17 -2 21 -17 16 -10 -3 -18 -1 -18 5 0 17 40 13 46 -4 4 -8 10 -15 16
-15 5 0 7 4 4 9 -3 5 0 11 8 14 9 4 13 -1 11 -11 -1 -9 0 -11 2 -4 3 7 9 10
14 6 5 -3 7 -10 4 -15 -4 -5 1 -12 9 -15 12 -5 13 -9 3 -19 -8 -8 -18 -10 -29
-4 -10 6 -19 5 -23 -1 -3 -5 3 -10 14 -10 28 0 35 -16 14 -32 -10 -7 -19 -18
-20 -23 -1 -6 -4 -22 -8 -37 -5 -19 -1 -32 14 -47 15 -15 17 -21 7 -21 -20 0
-27 -13 -16 -30 7 -12 12 -12 22 -2 9 9 8 12 -7 12 -17 0 -16 2 5 14 14 7 29
10 35 8 5 -3 4 -7 -3 -10 -7 -2 -10 -7 -7 -12 3 -4 18 4 34 19 16 14 27 30 24
34 -3 5 -11 0 -18 -9 -12 -16 -13 -16 -24 4 -12 23 -10 25 24 24 15 -1 16 1 4
4 -21 6 -30 39 -15 55 8 9 8 10 -4 4 -11 -6 -10 -3 3 12 9 11 17 25 17 31 0
15 35 33 46 24 5 -4 3 0 -4 10 -10 12 -10 18 -1 24 7 4 9 3 6 -3 -3 -5 0 -10
7 -10 7 0 12 9 12 20 -1 11 5 22 12 24 7 3 10 -1 6 -10 -3 -9 3 -16 15 -20 12
-3 19 -2 16 3 -3 4 2 11 11 14 15 6 15 3 -1 -20 -9 -15 -12 -23 -6 -20 16 10
14 -19 -2 -33 -18 -14 -26 -5 -21 25 2 13 1 24 -4 24 -12 0 -13 -42 -1 -56 7
-9 5 -20 -6 -38 -10 -14 -14 -26 -11 -26 4 0 0 -14 -9 -30 -17 -32 -7 -70 18
-70 7 0 6 4 -3 10 -13 9 -13 10 0 11 8 1 19 1 23 0 5 -1 6 3 3 8 -4 5 -2 12 4
16 5 3 10 1 10 -4 0 -6 4 -11 10 -11 5 0 7 7 4 15 -5 11 -1 14 12 10 17 -5 17
-5 3 6 -15 11 -14 15 7 47 13 19 21 38 19 43 -3 4 4 13 16 19 11 7 18 14 16
17 -3 2 8 33 25 69 16 35 31 72 33 81 2 10 4 20 5 23 1 3 2 9 1 13 -1 4 4 18
9 30 10 21 10 21 -4 3 -9 -11 -19 -15 -28 -10 -31 20 -93 -11 -92 -46 0 -14
-7 -34 -15 -44 -12 -14 -12 -17 -2 -11 7 4 3 -6 -10 -24 -12 -17 -27 -31 -33
-31 -6 0 -6 4 1 11 6 6 9 18 6 25 -3 8 0 14 7 14 6 0 8 5 5 11 -4 6 -13 8 -20
5 -7 -2 -17 0 -22 5 -6 6 -19 6 -36 0 -19 -7 -27 -7 -27 0 0 6 -5 7 -10 4 -8
-5 -8 -11 0 -20 14 -17 -7 -65 -29 -65 -14 0 -14 2 -1 11 12 8 12 9 -5 7 -39
-5 -47 11 -20 40 14 15 28 35 31 44 5 17 63 110 85 136 5 7 15 9 21 6 7 -4 8
-2 4 4 -4 7 0 12 11 13 10 0 13 3 6 6 -7 2 -13 13 -13 24 0 16 -7 18 -60 17
-33 -1 -60 -6 -60 -11z"/>
<path d="M0 3917 l0 -82 60 -49 c33 -26 81 -72 106 -102 30 -35 60 -59 90 -70
67 -25 74 -11 37 73 -17 37 -30 69 -28 71 6 6 45 -18 101 -64 31 -25 57 -44
59 -42 7 7 -135 148 -175 174 -29 19 -48 25 -68 21 -25 -5 -37 3 -105 73 l-77
79 0 -82z"/>
<path d="M0 3665 l0 -65 67 -48 c37 -26 91 -69 120 -96 29 -27 53 -45 53 -40
0 25 -75 135 -149 219 -46 52 -85 95 -87 95 -2 0 -4 -29 -4 -65z"/>
<path d="M2960 3303 c0 -18 33 -132 49 -168 66 -151 80 -188 74 -197 -3 -6 -2
-8 4 -5 5 3 21 -17 34 -45 13 -29 41 -78 62 -110 20 -32 37 -61 37 -65 0 -3
11 -20 23 -37 13 -17 43 -67 67 -111 51 -94 145 -227 214 -302 57 -62 73 -62
29 0 -16 23 -33 49 -37 57 -10 21 113 -110 133 -141 9 -15 76 -88 148 -164 95
-98 137 -136 149 -131 8 3 25 -1 37 -9 28 -19 43 -19 27 0 -7 8 -17 15 -23 15
-16 0 -138 109 -190 169 -26 31 -83 94 -126 141 -105 113 -244 293 -257 333
-8 21 -18 22 -37 2 -13 -13 -16 -13 -21 1 -3 9 -4 19 -1 24 7 12 -30 113 -43
118 -15 5 -15 -23 -1 -50 6 -11 8 -22 6 -25 -8 -7 -177 337 -177 361 0 12 -7
31 -15 42 -14 18 -15 16 -9 -18 4 -25 2 -38 -5 -38 -6 0 -11 7 -11 16 0 14
-70 201 -106 282 -7 18 -14 39 -14 47 0 7 -4 17 -10 20 -5 3 -10 -2 -10 -12z"/>
<path d="M515 1990 c-3 -5 -13 -6 -21 -3 -12 4 -15 1 -12 -13 2 -10 9 -18 15
-17 6 1 14 -4 17 -13 4 -10 2 -13 -7 -8 -7 5 -7 1 2 -10 8 -9 20 -15 27 -12
27 10 24 -14 -6 -56 -17 -24 -34 -43 -38 -43 -4 0 -12 -4 -19 -8 -7 -4 -13 0
-15 10 -3 17 -4 17 -11 0 -5 -14 -2 -20 13 -24 11 -3 20 -7 20 -8 0 -4 -23
-47 -35 -65 -5 -8 -10 -21 -12 -29 -1 -8 -9 -18 -17 -23 -10 -5 -16 -23 -16
-42 0 -19 -14 -62 -31 -96 -17 -34 -28 -68 -25 -76 3 -7 -1 -20 -10 -28 -8 -9
-10 -17 -4 -21 5 -3 2 -18 -8 -37 -14 -25 -25 -32 -52 -33 -45 -3 -52 2 -40
25 8 16 8 18 -5 14 -8 -4 -15 -17 -15 -31 0 -13 4 -22 9 -18 5 3 13 -4 16 -16
4 -12 14 -30 23 -40 9 -10 17 -38 18 -61 1 -24 0 -35 -3 -26 -3 10 -10 15 -19
11 -13 -5 -13 -7 -2 -14 11 -7 11 -12 0 -30 -8 -13 -10 -24 -4 -28 9 -6 9 -11
-2 -66 -4 -16 -9 -45 -11 -64 -3 -18 -7 -36 -10 -40 -7 -12 34 -73 45 -66 6 3
10 28 10 54 0 70 15 145 73 355 40 147 55 190 69 194 12 3 18 14 18 33 0 15
11 48 25 73 14 25 25 54 25 65 0 12 4 21 9 21 5 0 12 15 16 33 9 40 93 217
104 217 7 0 31 43 31 56 0 3 -15 -4 -34 -15 -44 -28 -64 -26 -76 4 -10 27 -16
30 -25 15z"/>
<path d="M700 1782 c0 -10 -7 -27 -15 -38 -8 -10 -15 -29 -15 -40 0 -12 -7
-27 -15 -34 -9 -7 -14 -19 -11 -25 2 -7 -3 -23 -12 -36 -10 -14 -12 -24 -5
-26 6 -2 -6 -36 -27 -79 -21 -41 -40 -94 -43 -117 -12 -103 -31 -193 -43 -208
-8 -8 -14 -22 -14 -29 0 -25 -52 -145 -68 -157 -8 -7 -30 -45 -47 -85 -18 -40
-37 -74 -43 -76 -14 -4 -8 73 14 208 16 98 17 120 6 120 -8 0 -54 -217 -57
-270 -1 -14 -3 -38 -4 -55 l-2 -30 -13 24 c-13 23 -14 23 -19 5 -4 -16 -5 -15
-6 5 -1 20 -3 21 -16 11 -8 -7 -15 -18 -15 -24 0 -7 4 -6 9 2 6 11 10 10 16
-5 5 -10 7 -21 7 -25 -1 -5 2 -8 8 -8 5 0 8 -10 6 -22 -3 -13 -5 -33 -5 -45
-1 -14 -7 -23 -17 -23 -14 0 -14 -3 -3 -16 10 -13 10 -17 -2 -25 -12 -7 -12
-9 1 -9 12 0 12 -2 1 -9 -7 -5 -9 -11 -4 -14 6 -4 11 -38 11 -77 1 -60 -2 -74
-20 -92 -17 -17 -18 -20 -4 -15 15 6 17 2 16 -26 -5 -91 0 -181 11 -170 6 6
13 29 16 52 3 22 9 41 13 41 11 0 17 -29 31 -157 7 -62 15 -113 18 -113 3 0
15 7 25 15 17 13 18 19 8 53 -15 48 -16 119 -2 127 7 4 6 13 -1 27 -20 37 7
262 43 363 5 17 13 42 15 58 3 15 10 30 16 34 11 7 8 -32 -21 -244 -6 -46 -5
-71 5 -95 18 -42 31 -27 38 47 4 33 10 69 15 80 17 42 22 61 26 104 2 25 8 59
13 75 23 77 23 89 2 83 -22 -5 -22 -5 0 82 9 39 5 51 -19 51 -11 0 -13 3 -6 8
15 10 77 211 75 244 -1 15 10 76 24 135 14 59 24 116 22 125 -3 9 1 19 9 22
16 6 38 82 29 103 -3 10 3 22 15 30 11 8 20 21 20 29 0 8 7 26 16 39 9 14 14
31 11 39 -4 9 7 22 29 35 40 24 44 41 9 41 -14 0 -25 5 -25 10 0 6 -7 10 -15
10 -8 0 -15 -8 -15 -18z"/>
<path d="M2130 1726 c0 -21 80 -80 180 -130 112 -57 230 -136 300 -201 19 -18
61 -51 93 -73 58 -40 179 -172 230 -249 15 -24 33 -43 41 -43 15 0 59 -61 75
-103 15 -40 14 -43 -11 -20 -71 64 -62 44 99 -200 62 -94 111 -172 110 -173
-1 -2 -38 36 -81 84 -89 97 -120 125 -109 95 7 -17 6 -17 -20 0 -14 9 -31 17
-37 17 -5 0 -30 16 -56 35 -25 19 -57 38 -72 42 -14 3 -55 23 -91 43 -349 196
-361 202 -388 195 -36 -9 -26 -17 133 -108 119 -68 173 -94 183 -88 2 2 7 -2
10 -7 3 -5 29 -17 56 -26 186 -63 515 -362 659 -600 33 -54 71 -118 83 -140 7
-12 26 -23 45 -26 26 -4 33 -10 32 -28 -1 -21 3 -22 80 -22 l81 0 68 72 c69
73 93 105 83 115 -5 6 -63 -51 -123 -121 -18 -21 -36 -35 -42 -32 -10 7 13 90
32 114 5 7 8 15 5 17 -3 3 -25 -22 -49 -55 -44 -62 -62 -61 -40 0 9 28 0 42
-14 20 -12 -20 -25 1 -25 40 0 30 5 42 21 51 19 9 20 16 14 52 -14 79 -13 112
3 130 14 16 14 21 3 40 -14 22 -14 22 7 3 12 -10 19 -23 15 -29 -3 -6 -1 -7 5
-3 9 5 8 12 -1 27 -10 17 -9 22 6 30 9 6 17 15 17 22 0 8 -3 7 -9 -2 -7 -11
-11 -10 -20 7 -13 25 -15 55 -2 48 5 -3 14 1 20 8 9 10 9 16 1 21 -6 4 -14 4
-17 1 -4 -3 -1 -6 6 -6 7 0 9 -5 6 -10 -4 -6 -11 -8 -16 -5 -12 8 -12 55 0 55
6 0 9 9 8 20 -2 28 -8 25 -41 -17 -16 -20 -25 -34 -20 -30 9 5 10 -13 6 -65
-1 -10 -5 -18 -9 -18 -5 0 -9 28 -11 61 -2 50 0 60 12 56 8 -3 16 0 19 6 6 17
-5 41 -20 45 -17 3 -16 -3 3 -22 14 -14 14 -16 0 -16 -8 0 -20 9 -26 20 -6 11
-15 18 -21 14 -16 -9 -61 25 -55 42 3 8 1 12 -4 9 -5 -3 -17 3 -27 15 -10 11
-22 20 -27 20 -5 0 1 -11 14 -25 18 -20 20 -25 8 -25 -9 0 -19 5 -21 10 -3 6
-4 5 -3 -2 2 -7 13 -13 25 -12 25 1 26 -4 4 -28 -16 -18 -16 -19 5 -25 12 -3
22 -9 22 -14 0 -5 5 -9 10 -9 18 0 10 22 -10 27 -22 6 -26 18 -8 29 6 4 17 -1
24 -10 7 -10 15 -17 18 -17 16 2 18 0 7 -13 -8 -10 -9 -16 -1 -21 5 -3 10 -21
10 -38 l0 -32 -21 25 c-17 21 -20 22 -15 5 6 -20 6 -20 -9 -1 -8 11 -15 25
-15 30 0 6 -4 5 -9 -3 -7 -10 -11 -5 -16 18 -3 17 -10 31 -15 31 -4 0 -11 7
-14 16 -4 10 -2 13 7 9 6 -4 5 -1 -4 7 -19 16 -20 94 -1 91 6 -2 12 2 12 7 0
6 -4 10 -10 10 -5 0 -9 3 -7 8 1 4 -2 8 -7 9 -12 2 -26 25 -25 43 0 10 3 8 9
-5 7 -17 9 -17 9 -2 1 9 6 17 13 17 6 0 8 3 4 7 -4 4 -15 8 -24 8 -20 0 -23
36 -3 43 9 3 11 -2 7 -19 -6 -21 -6 -22 4 -6 13 21 6 52 -10 42 -5 -3 -10 -2
-10 3 0 16 13 22 26 11 9 -7 12 -6 10 5 -3 24 -16 32 -27 16 -8 -13 -12 -11
-29 10 -21 27 -21 27 -22 -27 0 -21 -4 -42 -8 -48 -4 -5 -6 -19 -3 -30 2 -11
6 -30 8 -42 2 -12 6 -35 10 -52 5 -23 3 -33 -9 -37 -9 -3 -13 -11 -9 -17 4 -6
0 -8 -10 -4 -10 3 -17 2 -17 -3 0 -6 4 -10 8 -10 4 0 8 -9 9 -20 1 -11 -2 -20
-6 -20 -17 0 -30 27 -24 48 3 13 1 22 -6 22 -5 0 -8 8 -5 18 5 13 4 14 -4 3
-5 -7 -8 -23 -6 -35 2 -11 -3 -5 -13 14 -9 19 -17 41 -19 48 -3 14 12 16 21 2
3 -5 15 -10 26 -10 13 0 18 -4 13 -12 -4 -6 -3 -8 4 -5 5 4 8 16 5 27 -5 17
-8 18 -21 8 -12 -10 -16 -10 -19 0 -3 6 -13 12 -24 12 -18 0 -23 9 -16 27 1 5
8 7 15 5 14 -3 17 34 3 42 -5 4 -7 -4 -4 -16 4 -23 4 -23 -13 -3 -14 17 -16
18 -10 2 3 -11 2 -16 -4 -12 -15 9 -13 48 3 39 6 -4 2 3 -10 15 -12 11 -24 21
-26 21 -2 0 -3 -21 -1 -47 3 -37 1 -44 -7 -30 -6 10 -8 24 -6 31 3 7 1 19 -5
27 -7 11 -8 9 -3 -6 5 -16 4 -18 -7 -7 -9 9 -10 17 -1 31 9 14 8 18 -3 18 -7
0 -11 -4 -8 -9 3 -4 0 -8 -5 -8 -10 0 -15 14 -12 33 0 4 -5 7 -12 7 -8 0 -7 3
3 10 12 7 12 12 -4 28 -13 15 -14 22 -5 27 8 6 7 11 -6 18 -25 13 -39 -12 -17
-30 10 -7 12 -13 5 -13 -17 0 -49 52 -47 77 1 12 -3 20 -8 17 -4 -3 -6 -10 -3
-15 4 -5 1 -9 -4 -9 -6 0 -11 5 -11 11 0 6 -16 44 -35 84 -20 40 -34 79 -33
86 2 7 -5 15 -14 17 -15 3 -17 -2 -12 -27 4 -20 2 -31 -5 -31 -11 0 -15 17
-12 55 2 17 0 17 -8 5 -6 -8 -11 -10 -11 -4 0 6 8 18 17 25 14 12 16 12 8 0
-5 -10 -4 -12 3 -7 9 5 9 13 2 27 -6 10 -13 19 -16 19 -3 0 -2 -5 2 -12 5 -8
0 -9 -15 -5 -16 4 -20 2 -14 -7 4 -6 0 -3 -9 7 -10 11 -18 25 -18 32 0 7 -6
18 -14 24 -8 7 -13 23 -10 37 3 16 0 24 -10 24 -21 0 -29 -16 -18 -37 5 -10 6
-27 1 -38 l-8 -20 -1 20 c-2 11 -2 23 -1 28 0 4 -4 7 -10 7 -5 0 -7 5 -4 10 3
6 2 10 -4 10 -9 0 -31 54 -37 90 -2 8 -8 16 -14 18 -5 2 -8 8 -5 12 7 11 -30
32 -39 23 -13 -13 -5 -21 17 -15 18 4 20 3 11 -9 -7 -8 -8 -22 -3 -34 11 -28
11 -37 0 -30 -11 6 -26 -33 -17 -42 3 -4 6 1 6 10 0 21 14 22 30 2 10 -12 10
-18 -1 -32 -11 -15 -11 -16 1 -6 11 11 16 7 27 -18 7 -17 13 -42 13 -54 0 -13
7 -26 16 -29 9 -3 14 -12 11 -20 -3 -7 0 -20 6 -27 10 -10 8 -10 -6 0 -9 8
-15 16 -13 19 6 6 -11 23 -46 46 -15 10 -25 22 -22 27 3 5 -2 9 -11 9 -9 0
-14 4 -10 9 3 5 0 13 -6 17 -8 4 -9 3 -5 -4 14 -22 -11 -12 -35 15 -18 19 -19
25 -7 20 10 -3 19 -3 22 1 2 4 -7 9 -21 10 -33 3 -45 11 -37 24 5 7 2 9 -8 5
-20 -7 -61 21 -52 35 4 6 2 8 -3 5 -6 -4 -16 0 -23 9 -18 20 -127 84 -146 84
-7 0 -13 5 -11 12 1 6 -6 14 -17 16 -13 3 -16 0 -11 -10 3 -7 -7 2 -23 20 -15
17 -38 32 -49 32 -12 0 -23 3 -25 8 -6 14 -106 54 -117 47 -7 -4 -18 -1 -26 5
-8 7 -15 9 -15 6z"/>
<path d="M4755 1020 c-7 -11 3 -20 130 -115 55 -42 121 -92 147 -113 26 -20
71 -54 100 -75 29 -21 78 -56 108 -78 57 -42 252 -160 328 -198 88 -45 60 -14
-44 49 -106 64 -371 250 -449 316 -22 19 -47 40 -56 46 -8 7 -37 31 -65 53
-75 62 -116 89 -137 90 -11 1 -24 9 -29 18 -10 19 -24 22 -33 7z"/>
<path d="M3827 588 c4 -19 -1 -32 -16 -44 -12 -10 -21 -23 -21 -29 0 -5 5 -3
11 5 9 12 9 11 4 -5 -4 -11 -8 -25 -8 -32 0 -7 -7 -15 -15 -18 -11 -4 -12 -8
-2 -19 9 -11 9 -20 0 -36 -6 -12 -9 -27 -7 -35 3 -7 1 -17 -5 -23 -16 -16 6
-21 27 -6 11 8 14 14 6 14 -10 0 -11 3 -2 13 8 10 7 17 -1 25 -9 9 -9 15 1 25
9 7 11 7 8 1 -4 -7 0 -14 8 -17 11 -5 12 -1 5 18 -6 16 -6 25 0 25 6 0 9 3 9
8 -4 24 3 42 16 42 8 0 15 5 15 11 0 5 -4 7 -10 4 -12 -8 -13 5 -1 24 7 11 13
12 23 4 7 -6 21 -9 30 -8 10 2 16 -2 15 -8 -4 -20 -30 -42 -50 -42 -12 0 -21
-8 -23 -18 -1 -10 2 -14 8 -11 6 4 8 1 6 -7 -3 -8 -11 -13 -17 -11 -7 1 -10
-2 -6 -7 3 -6 12 -8 20 -4 11 4 13 1 9 -11 -3 -9 -10 -13 -16 -10 -5 3 -8 -1
-6 -9 2 -8 -8 -26 -22 -39 -20 -19 -25 -34 -27 -81 -2 -67 12 -72 32 -13 7 21
25 50 39 65 15 15 23 31 19 35 -5 4 1 6 11 4 11 -1 21 4 23 12 4 12 3 12 -5 1
-6 -9 -12 -10 -16 -3 -6 11 32 38 47 34 4 -1 7 3 7 8 0 13 -17 13 -25 0 -3 -5
-11 -10 -16 -10 -13 0 22 61 39 67 6 3 12 12 12 20 0 8 -4 11 -10 8 -9 -5 -15
14 -11 37 0 3 -7 5 -17 3 -9 -1 -23 2 -29 8 -7 5 -13 6 -13 1 0 -4 -13 7 -29
26 -28 34 -29 34 -24 8z"/>
<path d="M4086 498 c3 -5 14 -6 25 -3 14 5 19 2 19 -11 0 -10 3 -14 7 -11 3 4
15 -1 26 -10 11 -10 17 -12 13 -6 -5 9 -2 11 8 7 24 -9 25 -8 -46 -85 -10 -10
-17 -24 -15 -30 1 -6 -4 -14 -12 -16 -10 -4 -11 1 -6 18 4 13 12 26 16 27 5 2
6 9 3 14 -4 6 -2 8 3 5 13 -8 23 15 23 49 0 21 -3 23 -19 14 -31 -16 -46 -13
-30 8 13 16 12 16 -4 3 -18 -14 -18 -16 -1 -28 10 -8 13 -13 5 -13 -7 0 -10
-4 -6 -9 3 -5 -5 -17 -17 -25 -17 -12 -25 -13 -37 -3 -14 10 -14 10 -4 -4 7
-9 9 -20 5 -24 -4 -5 0 -5 8 -1 8 4 7 1 -3 -7 -10 -9 -18 -18 -17 -22 1 -4 -1
-9 -4 -13 -3 -3 -6 0 -6 7 0 7 -5 9 -11 5 -7 -4 -8 -9 0 -17 13 -13 -15 -64
-42 -79 -16 -8 -18 -7 -12 11 4 12 2 21 -4 21 -14 0 -31 -34 -31 -63 l0 -24
43 20 c23 12 44 25 46 30 9 24 75 87 90 87 9 0 12 -3 6 -8 -10 -7 -20 -52 -12
-52 8 0 77 69 77 77 0 4 9 19 20 33 l20 25 0 -27 c0 -15 -4 -30 -10 -33 -16
-10 -12 -25 5 -19 22 9 18 -4 -10 -38 -39 -46 -19 -49 22 -4 36 39 36 39 14
48 -17 6 -20 12 -13 24 5 9 7 26 4 38 -5 20 -5 20 12 3 10 -9 23 -14 29 -10 7
4 8 0 4 -11 -4 -10 -3 -15 3 -11 8 5 8 16 1 54 -1 2 -8 -2 -15 -9 -13 -10 -15
-7 -13 17 2 17 8 28 17 28 8 0 14 -5 13 -12 -1 -6 4 -14 12 -17 22 -8 19 27
-4 55 -15 18 -27 23 -61 21 -23 -2 -47 1 -53 6 -15 12 -88 12 -81 0z"/>
</g>
</svg>
