<?xml version="1.0" standalone="no"?>
<!DOCTYPE svg PUBLIC "-//W3C//DTD SVG 20010904//EN"
 "http://www.w3.org/TR/2001/REC-SVG-20010904/DTD/svg10.dtd">
<svg version="1.0" xmlns="http://www.w3.org/2000/svg"
 width="270.000000pt" height="350.000000pt" viewBox="0 0 270.000000 350.000000"
 preserveAspectRatio="xMidYMid meet">

<g transform="translate(0.000000,350.000000) scale(0.100000,-0.100000)"
fill="#000000" stroke="none">
<path d="M840 2904 c-30 -17 -80 -18 -131 -3 -37 12 -38 11 -113 -52 -58 -50
-79 -75 -94 -114 -19 -49 -36 -65 -94 -85 -15 -5 -44 -32 -63 -59 -20 -28 -44
-53 -54 -56 -9 -3 -28 -26 -41 -53 -20 -39 -25 -62 -25 -132 0 -68 -4 -93 -22
-128 -13 -23 -23 -54 -23 -68 0 -34 43 -115 105 -199 62 -84 120 -138 180
-167 39 -19 49 -20 78 -10 18 7 68 12 111 12 57 0 87 5 115 20 22 11 56 22 78
26 34 5 41 2 72 -30 32 -33 40 -36 93 -36 74 0 87 -18 64 -87 -25 -74 -21 -96
29 -155 57 -68 102 -152 119 -227 l14 -59 -36 -64 c-50 -89 -50 -142 0 -226
36 -60 60 -126 72 -203 4 -20 27 -68 52 -108 27 -42 48 -88 51 -112 5 -32 11
-43 32 -51 29 -11 213 -2 271 13 51 12 124 89 180 186 29 51 60 92 81 106 31
21 34 27 37 80 2 31 -2 65 -7 75 -9 16 -4 24 32 49 23 17 51 33 63 37 11 3 36
22 55 42 32 33 34 40 37 113 3 53 -1 92 -12 125 -9 27 -19 75 -23 107 -5 50
-2 65 21 111 16 31 50 74 84 103 124 110 179 166 212 221 39 64 79 174 80 217
0 23 -4 27 -28 27 -15 0 -54 -9 -85 -20 -32 -11 -77 -23 -100 -26 -40 -6 -43
-4 -61 30 -11 20 -44 54 -74 77 -32 24 -60 55 -69 76 -8 20 -30 50 -48 68 -24
22 -36 44 -41 74 -5 30 -20 58 -51 94 -63 74 -87 122 -72 148 11 21 6 93 -9
116 -7 12 -66 15 -217 14 -67 -1 -88 3 -129 24 -42 22 -51 24 -74 13 -16 -8
-29 -25 -34 -45 -5 -18 -15 -33 -23 -33 -7 0 -51 18 -96 40 -46 22 -92 40
-103 40 -41 0 -48 13 -31 59 30 85 36 81 -147 80 -119 -1 -170 -5 -188 -15z
m327 -36 c-3 -23 -13 -48 -22 -55 -16 -11 -14 -14 16 -32 19 -12 43 -21 54
-21 11 0 51 -16 88 -35 39 -20 83 -35 103 -35 29 0 34 3 34 23 0 13 9 32 21
42 19 18 22 18 52 2 56 -28 109 -36 229 -34 64 1 120 -2 125 -6 4 -5 8 -43 8
-85 0 -84 11 -107 81 -182 23 -25 37 -51 43 -85 7 -35 18 -57 43 -80 18 -18
42 -50 51 -71 11 -25 35 -51 63 -69 24 -17 58 -51 74 -77 17 -28 37 -48 47
-48 10 0 63 13 118 29 97 28 100 28 103 9 5 -28 -27 -125 -61 -187 -30 -54
-92 -121 -223 -241 -93 -86 -119 -138 -109 -223 3 -34 13 -77 22 -97 10 -22
15 -65 16 -113 0 -93 -14 -118 -89 -159 -27 -15 -64 -40 -83 -56 -34 -28 -34
-29 -18 -53 20 -28 22 -89 5 -110 -7 -9 -25 -23 -40 -32 -15 -9 -44 -49 -65
-89 -22 -42 -64 -99 -98 -134 l-60 -61 -85 -6 c-111 -9 -192 -8 -206 1 -6 4
-14 26 -17 50 -3 23 -16 57 -30 75 -40 53 -65 109 -80 186 -9 43 -29 95 -49
129 -66 110 -67 135 -8 238 35 63 37 81 10 164 -23 72 -46 113 -108 189 -48
59 -47 47 -25 192 7 48 -21 69 -91 69 -43 0 -55 5 -83 32 -27 26 -40 31 -74
30 -24 -1 -60 -13 -83 -26 -35 -20 -59 -24 -162 -29 -109 -4 -125 -3 -154 15
-79 48 -193 189 -238 295 l-22 53 22 42 c18 35 23 60 23 128 1 94 27 168 70
196 12 8 36 34 53 58 22 30 44 48 70 57 52 16 61 26 89 89 19 41 41 69 90 109
l65 54 53 -13 c49 -12 59 -11 107 7 44 17 78 21 197 22 l144 1 -6 -42z"/>
<path d="M2390 1180 c-20 -43 -29 -52 -64 -62 -68 -19 -80 -37 -85 -126 -2
-43 -9 -86 -17 -97 -22 -30 -18 -111 6 -135 37 -37 121 -15 141 38 49 123 109
314 109 344 0 56 -16 88 -43 88 -19 0 -29 -11 -47 -50z m70 10 c17 -40 10 -72
-48 -240 -60 -170 -74 -190 -131 -190 -35 0 -43 4 -51 26 -15 38 -12 71 8 101
11 18 19 55 22 106 4 57 9 82 20 88 8 4 36 17 62 29 38 17 50 29 65 65 21 52
36 57 53 15z"/>
</g>
</svg>
